<svg width="30" height="30" viewBox="0 0 30 30" fill="none" xmlns="http://www.w3.org/2000/svg">
<circle cx="15" cy="15" r="15" fill="white"/>
<path d="M14.9981 0C6.71625 0 0 6.77108 0 15.1238C0 21.8045 4.2975 27.4722 10.26 29.4738C11.01 29.6131 11.2838 29.1461 11.2838 28.7451C11.2838 28.3854 11.2706 27.4345 11.2631 26.173C7.09125 27.0862 6.21 24.145 6.21 24.145C5.52938 22.3977 4.545 21.9326 4.545 21.9326C3.18187 20.9949 4.64625 21.0137 4.64625 21.0137C6.15188 21.121 6.94313 22.5728 6.94313 22.5728C8.28187 24.8831 10.455 24.2166 11.31 23.8287C11.445 22.8514 11.8331 22.1849 12.2625 21.8064C8.9325 21.4242 5.43 20.1268 5.43 14.333C5.43 12.6816 6.015 11.3316 6.975 10.2734C6.81938 9.89112 6.30562 8.35275 7.12125 6.2721C7.12125 6.2721 8.38125 5.86538 11.2463 7.82176C12.4425 7.4866 13.725 7.31902 15.0019 7.31337C16.275 7.3209 17.5594 7.4866 18.7575 7.82365C21.6206 5.86726 22.8787 6.27398 22.8787 6.27398C23.6962 8.35652 23.1825 9.89301 23.0287 10.2752C23.9906 11.3335 24.57 12.6835 24.57 14.3349C24.57 20.1438 21.0637 21.4223 17.7225 21.797C18.2606 22.264 18.7406 23.1866 18.7406 24.5969C18.7406 26.6192 18.7219 28.2499 18.7219 28.7451C18.7219 29.1499 18.9919 29.6206 19.7531 29.4719C25.7062 27.4684 30 21.8026 30 15.1238C30 6.77108 23.2838 0 14.9981 0Z" fill="#BD38C9"/>
</svg>
