<svg width="31" height="30" viewBox="0 0 31 30" fill="none" xmlns="http://www.w3.org/2000/svg">
<ellipse cx="15.2292" cy="15" rx="14.9998" ry="15" fill="white"/>
<path d="M15.2292 0C6.94638 0 0.229492 6.717 0.229492 15C0.229492 23.283 6.94638 30 15.2292 30C23.5121 30 30.229 23.283 30.229 15C30.229 6.717 23.5121 0 15.2292 0ZM10.8705 22.6758H7.21737V11.6851H10.8705V22.6758ZM9.04405 10.1843H9.02024C7.79437 10.1843 7.00154 9.34044 7.00154 8.28575C7.00154 7.20726 7.81863 6.38672 9.06831 6.38672C10.318 6.38672 11.087 7.20726 11.1108 8.28575C11.1108 9.34044 10.318 10.1843 9.04405 10.1843ZM24.0429 22.6758H20.3902V16.796C20.3902 15.3184 19.8613 14.3106 18.5395 14.3106C17.5304 14.3106 16.9294 14.9904 16.6652 15.6466C16.5686 15.8814 16.5451 16.2096 16.5451 16.5381V22.6758H12.8922C12.8922 22.6758 12.94 12.7162 12.8922 11.6851H16.5451V13.2413C17.0305 12.4924 17.8991 11.4272 19.8373 11.4272C22.2407 11.4272 24.0429 12.998 24.0429 16.3737V22.6758Z" fill="#BD38C9"/>
</svg>
