<svg width="31" height="30" viewBox="0 0 31 30" fill="none" xmlns="http://www.w3.org/2000/svg">
<circle cx="15.2296" cy="15" r="15" fill="#BD38C9"/>
<path d="M5.67761 21.9133L5.65548 21.9403L6.14615 22.5414C6.28265 22.7086 6.42376 22.8709 6.56718 23.0249C6.64096 23.1042 6.71498 23.1831 6.76847 23.2318L6.81436 23.2772C6.93518 23.398 7.05646 23.5188 7.18536 23.6431C7.29165 23.7441 7.40256 23.8409 7.52684 23.9482L7.57688 23.9892C7.61608 24.0185 7.65297 24.0491 7.69078 24.0807L7.76295 24.1402C7.91975 24.2703 8.07654 24.3892 8.21442 24.4849C8.39566 24.621 8.59465 24.7566 8.81969 24.8997L8.79617 24.9092L8.98893 25.0054C9.05442 25.0455 9.11921 25.0856 9.19 25.1278C9.38921 25.2433 9.58912 25.3531 9.76575 25.4384C9.83423 25.4743 9.90732 25.5108 9.98041 25.5465L10.116 25.6122C10.1962 25.6487 10.2776 25.6798 10.3579 25.7151C10.4372 25.7501 10.517 25.784 10.5977 25.8177C10.6306 25.8313 10.6629 25.8465 10.6959 25.8596L10.8896 25.9678H10.9712C10.9717 25.9678 10.9726 25.9682 10.973 25.9682L11.1248 26.0254L11.1298 26.0231C11.1743 26.0386 11.2186 26.0552 11.2627 26.0697C11.315 26.0872 11.369 26.1024 11.4218 26.1195C11.4921 26.1421 11.5624 26.1642 11.6332 26.1855C11.6535 26.1917 11.6733 26.1988 11.6938 26.2044C11.7418 26.2219 11.775 26.23 11.7801 26.2309C11.8728 26.2583 11.9625 26.2818 12.048 26.3035C12.0856 26.3134 12.1239 26.3215 12.1617 26.3309C12.1725 26.3333 12.1863 26.3372 12.1972 26.3395C12.2018 26.3409 12.2066 26.3413 12.2112 26.3422C12.5361 26.4216 12.8659 26.4887 13.2007 26.5392C13.2242 26.5431 13.2479 26.5481 13.2714 26.5518L13.3966 26.5675C13.4665 26.576 13.5359 26.5832 13.6058 26.591C13.668 26.5982 13.7294 26.6063 13.7923 26.612C13.8013 26.6129 13.8108 26.6143 13.8202 26.6152C13.9821 26.6302 14.1421 26.6445 14.2858 26.6496C14.4884 26.6607 14.6913 26.6667 14.8963 26.6667C15.0663 26.6667 15.2302 26.6621 15.3888 26.6544C15.4545 26.6517 15.5191 26.6478 15.5844 26.6441C15.7128 26.6369 15.8465 26.6265 15.9867 26.6134C16.0215 26.6099 16.0566 26.6072 16.0916 26.6035C16.1179 26.6005 16.1412 26.5991 16.1689 26.5959L16.3404 26.5756C16.4864 26.559 16.6383 26.5364 16.7479 26.5147C16.7857 26.509 16.8235 26.499 16.8613 26.4928C16.9973 26.4688 17.1332 26.4444 17.2673 26.4156C17.2687 26.4151 17.2706 26.4151 17.2722 26.4146C17.3778 26.3941 17.4869 26.3692 17.5855 26.3457C17.631 26.3351 17.6755 26.322 17.7207 26.3102C17.7234 26.3093 17.7269 26.3088 17.7297 26.3079C17.8009 26.2894 17.8724 26.2719 17.9422 26.2525L18.1585 26.1908C18.1952 26.1795 18.2254 26.1686 18.2614 26.1566C18.2627 26.1562 18.2637 26.1557 18.2653 26.1552C18.361 26.125 18.4583 26.0944 18.5404 26.0651L18.6972 26.016C18.8842 25.948 19.0712 25.8753 19.2369 25.8045C19.2582 25.796 19.2791 25.7852 19.3008 25.7762C19.3063 25.7736 19.3116 25.7709 19.3172 25.7686C19.4807 25.7001 19.6441 25.6275 19.8032 25.5523C19.9902 25.464 20.1715 25.3662 20.3511 25.2684C20.5106 25.182 20.6617 25.0918 20.8122 25.0007L20.9879 24.8921C21.1069 24.8142 21.2231 24.7381 21.3393 24.656C21.3908 24.6228 21.4461 24.5857 21.4881 24.5534C21.5967 24.4741 21.7057 24.3939 21.8125 24.3113L21.9093 24.2385C22.0562 24.1225 22.2026 24.001 22.3437 23.8801L22.4775 23.7653L22.4839 23.7531C22.5921 23.6558 22.6984 23.5534 22.8088 23.4471C22.9534 23.3083 23.097 23.1591 23.2372 23.0083C23.376 22.8591 23.5107 22.7042 23.6396 22.5499L24.1415 21.9472L24.1141 21.9142C25.4438 20.0569 26.2297 17.7855 26.2297 15.3333C26.2297 12.8811 25.4438 10.6097 24.115 8.75285L24.1425 8.71988L23.6405 8.11738C23.5121 7.96289 23.377 7.80841 23.2372 7.65738C23.1016 7.51234 22.9624 7.37215 22.8028 7.21352C22.697 7.11252 22.5921 7.0113 22.4844 6.914L22.3442 6.78695C22.2031 6.66612 22.0567 6.54438 21.9098 6.42863L21.8129 6.356C21.7067 6.27322 21.5994 6.19436 21.498 6.12035C21.4475 6.08253 21.3917 6.04472 21.3398 6.01174C21.2236 5.92943 21.1074 5.85357 20.9884 5.77563L20.8325 5.67349L20.8127 5.66703C20.6626 5.57572 20.5111 5.48557 20.3534 5.40002C20.1719 5.30133 19.9902 5.20311 19.8037 5.11549C19.6181 5.02764 19.4274 4.94071 19.254 4.87038C19.0716 4.79199 18.8853 4.71913 18.6976 4.65157L18.5588 4.60868C18.4272 4.56141 18.2955 4.51945 18.1392 4.47125L17.9397 4.41407C17.835 4.38433 17.725 4.35458 17.6148 4.32876L17.4841 4.29694C17.4218 4.28287 17.3575 4.26812 17.2962 4.25636L17.2051 4.22661H17.1592C17.0578 4.20402 16.9533 4.18465 16.85 4.16758L16.7838 4.15813C16.6379 4.13023 16.4859 4.10763 16.3669 4.09449L16.1336 4.06659C16.1124 4.06428 16.0916 4.0629 16.0702 4.06083C16.0529 4.05898 16.0349 4.0576 16.0174 4.05621C15.8668 4.04192 15.7181 4.03016 15.5802 4.02255C15.52 4.01886 15.4596 4.01563 15.3992 4.01264C15.0386 3.99442 14.6625 3.99673 14.3457 4.01425C14.2461 4.01886 14.1469 4.02785 14.0478 4.03546C13.9722 4.04146 13.8965 4.04446 13.8216 4.05183C13.8135 4.05299 13.805 4.05391 13.7969 4.05483C13.7275 4.06129 13.659 4.07028 13.5901 4.07835C13.5202 4.08642 13.4508 4.09311 13.381 4.1021L13.2809 4.1134C13.2553 4.11709 13.2286 4.12285 13.203 4.127C12.9627 4.16343 12.7254 4.20863 12.4905 4.25981L12.481 4.26166C12.3978 4.27711 12.3199 4.29602 12.2269 4.32023C12.1986 4.32622 12.1711 4.33383 12.1428 4.34052C12.1126 4.34813 12.0824 4.35458 12.0526 4.36219C11.9661 4.38387 11.8831 4.40554 11.8124 4.42698C11.7891 4.43298 11.7485 4.44335 11.6975 4.46134L11.6749 4.46757C11.5271 4.50769 11.3844 4.55288 11.2659 4.596C11.2205 4.61098 11.1762 4.62759 11.1308 4.64327L11.1252 4.64073L10.9631 4.7016C10.9622 4.70229 10.9613 4.70229 10.9604 4.70275L10.8725 4.7046L10.5552 4.86554C10.4891 4.89298 10.4238 4.92226 10.3583 4.95109C10.2781 4.98637 10.1962 5.01819 10.1165 5.05392L9.98088 5.11964C9.90778 5.15607 9.83423 5.19181 9.80103 5.21072C9.68066 5.2679 9.56076 5.33062 9.47061 5.38319C9.39313 5.42423 9.31174 5.4685 9.23334 5.51393L9.00784 5.64905C9.00346 5.65135 8.99931 5.65412 8.99539 5.65712L8.79663 5.75765L8.81969 5.76664C8.78349 5.7897 8.74613 5.81183 8.7097 5.83558L8.61494 5.89968L8.61194 5.90268C8.4812 5.98938 8.35738 6.07631 8.25869 6.15009C8.22941 6.16946 8.20013 6.19067 8.15493 6.22411C8.04818 6.29881 7.9428 6.37767 7.84089 6.46506C7.81299 6.48627 7.78947 6.50472 7.77056 6.52017L7.54437 6.70717C7.42285 6.80678 7.30065 6.91261 7.16852 7.0392L7.02488 7.17847C6.93287 7.26078 6.84549 7.34748 6.75856 7.4434C6.69192 7.50727 6.63013 7.57322 6.57018 7.63847C6.4233 7.79572 6.28265 7.95805 6.14615 8.12522L5.65548 8.72657L5.67761 8.75331C4.34833 10.6102 3.56299 12.8811 3.56299 15.3333C3.56299 17.7855 4.34833 20.0565 5.67761 21.9133ZM13.9586 5.93658C14.2673 5.90591 14.58 5.88885 14.8963 5.88885C15.5394 5.88885 16.1675 5.95456 16.7748 6.07769C16.7857 6.08023 16.797 6.08161 16.8073 6.08438L16.918 6.12081H16.9496C18.7624 6.52455 20.3792 7.44778 21.6359 8.72979C20.5872 9.79322 19.2937 10.5998 17.8841 11.072L17.8765 11.048L17.8373 11.0602C17.8251 11.03 17.8094 11.0008 17.7968 10.9705C17.7225 10.7939 17.6436 10.6196 17.5606 10.4467C17.5323 10.3876 17.5053 10.3277 17.4756 10.2691C17.3623 10.0445 17.2429 9.82296 17.1154 9.60622C17.096 9.57325 17.0741 9.54143 17.0543 9.50892C16.9438 9.32584 16.8281 9.14622 16.7077 8.9696C16.6639 8.90549 16.619 8.84255 16.5738 8.77937C16.4661 8.62834 16.3545 8.48054 16.2399 8.33505C16.1954 8.27878 16.152 8.2216 16.1066 8.16649C15.948 7.97281 15.784 7.78304 15.6132 7.60019C15.5966 7.58267 15.5791 7.5663 15.5622 7.54878C15.4059 7.38391 15.2443 7.22435 15.0792 7.06894C15.0224 7.01568 14.9648 6.96403 14.9067 6.91215C14.7711 6.78994 14.6328 6.67143 14.4917 6.55568C14.4326 6.50749 14.3741 6.45837 14.3141 6.4111C14.12 6.25869 13.9221 6.11043 13.7181 5.97047C13.7776 5.96309 13.8352 5.94972 13.8952 5.94372C13.9164 5.94119 13.9374 5.93842 13.9586 5.93658ZM16.8286 24.5776C16.8108 24.5818 16.7919 24.5852 16.7739 24.5894C16.476 24.6498 16.1737 24.6966 15.8664 24.7282C15.8615 24.7287 15.8564 24.7291 15.8516 24.7296C15.5376 24.7612 15.2189 24.7778 14.8963 24.7778C14.579 24.7778 14.2655 24.7607 13.9563 24.73C13.9369 24.7282 13.9171 24.7259 13.8977 24.7236C13.8366 24.7169 13.7785 24.7038 13.7181 24.6961C13.9221 24.5564 14.12 24.4082 14.3141 24.2555C14.3741 24.2082 14.4326 24.1591 14.4917 24.1109C14.6328 23.9954 14.7711 23.8769 14.9067 23.7545C14.9643 23.7026 15.0224 23.6512 15.0792 23.5977C15.245 23.4423 15.4064 23.2827 15.5622 23.1178C15.5786 23.1006 15.5966 23.084 15.6132 23.0664C15.784 22.8838 15.9475 22.6938 16.1066 22.5004C16.152 22.445 16.1954 22.3878 16.2399 22.3318C16.3545 22.1863 16.4661 22.038 16.5738 21.8873C16.619 21.8241 16.6639 21.7607 16.7077 21.697C16.8281 21.5204 16.9438 21.341 17.0543 21.1577C17.0741 21.1252 17.096 21.0931 17.1154 21.0604C17.2434 20.8437 17.3623 20.6228 17.4756 20.3975C17.5053 20.3389 17.5323 20.279 17.5606 20.2199C17.6436 20.0475 17.7225 19.8734 17.7968 19.6963C17.8094 19.6661 17.8247 19.6368 17.8373 19.6066L17.8765 19.6188L17.8841 19.5946C19.2937 20.0668 20.5872 20.8734 21.6359 21.9368C20.3515 23.2484 18.6912 24.1884 16.8286 24.5776ZM15.9508 19.2116C15.8488 19.4364 15.7363 19.6562 15.6173 19.8713C15.5943 19.9135 15.5717 19.9564 15.5479 19.9979C15.423 20.216 15.2892 20.4291 15.1472 20.6364C15.1184 20.679 15.0882 20.7205 15.0584 20.762C14.9085 20.9742 14.7527 21.1819 14.5862 21.3807C14.5818 21.3853 14.5777 21.3901 14.5733 21.3952C14.408 21.5917 14.2334 21.7796 14.0529 21.962C14.0194 21.9959 13.9865 22.0304 13.9523 22.0639C13.772 22.2414 13.5846 22.4116 13.3904 22.5744C13.354 22.605 13.3162 22.6348 13.2795 22.6645C13.0764 22.8299 12.8686 22.9894 12.6523 23.1377C12.6514 23.1384 12.6505 23.1393 12.6496 23.1397C12.4328 23.288 12.2076 23.425 11.9791 23.5548C11.9364 23.5788 11.8944 23.6034 11.852 23.627C11.6281 23.7499 11.3992 23.8635 11.1654 23.968C11.1515 23.974 11.1375 23.9797 11.1238 23.986C10.8919 23.8843 10.6638 23.7761 10.4423 23.6572C10.416 23.6431 10.3895 23.6288 10.3634 23.6147C9.54647 23.1656 8.8047 22.5981 8.15678 21.9368C10.1808 19.8794 13.0598 18.8434 15.9706 19.1724C15.9641 19.1853 15.957 19.1985 15.9508 19.2116ZM9.60734 7.51281C9.61403 7.50865 9.62071 7.50381 9.62717 7.4992C10.0971 7.18239 10.5986 6.91031 11.1234 6.68042C11.1379 6.68688 11.1536 6.69264 11.1681 6.69933C11.4005 6.80309 11.6281 6.91607 11.8504 7.03782C11.8944 7.0618 11.9373 7.08693 11.9814 7.11183C12.2094 7.24188 12.4338 7.37792 12.65 7.52572C12.6514 7.52664 12.6528 7.52802 12.6546 7.52895C12.8705 7.67675 13.0778 7.83584 13.28 8.00071C13.3173 8.03091 13.3545 8.06066 13.3913 8.09132C13.5855 8.25434 13.7729 8.42428 13.9533 8.60182C13.9874 8.6348 14.0199 8.66938 14.0533 8.70328C14.2343 8.88613 14.4096 9.07451 14.5747 9.27096C14.5786 9.27557 14.5827 9.27995 14.5871 9.28456C14.7538 9.48401 14.9095 9.69176 15.0598 9.90367C15.0891 9.94517 15.1193 9.9869 15.1481 10.0289C15.2897 10.2362 15.4239 10.4492 15.5489 10.6678C15.5731 10.7098 15.5952 10.7524 15.6183 10.7944C15.7375 11.0102 15.8498 11.2293 15.9517 11.4541C15.9579 11.4672 15.9646 11.4799 15.9706 11.4937C13.0589 11.8248 10.1808 10.7863 8.15678 8.72887C8.59833 8.27832 9.08278 7.86882 9.60734 7.51281ZM14.8963 13.4444C15.4527 13.4444 16.0107 13.3988 16.5652 13.3169C16.7091 13.9771 16.7852 14.652 16.7852 15.3333C16.7852 16.0147 16.7091 16.6896 16.5652 17.3497C16.0107 17.2681 15.4527 17.2222 14.8963 17.2222C11.9115 17.2222 9.08416 18.3873 6.97092 20.4521C6.01379 18.9755 5.45188 17.2204 5.45188 15.3333C5.45188 13.4463 6.01379 11.6911 6.97092 10.2145C9.08416 12.2795 11.9115 13.4444 14.8963 13.4444ZM22.8173 20.4593C21.5801 19.2543 20.0804 18.3352 18.447 17.794L18.4631 17.7431L18.414 17.7318C18.5835 16.9464 18.6741 16.1438 18.6741 15.3333C18.6741 14.5231 18.5835 13.7202 18.414 12.9344L18.4631 12.9231L18.447 12.8721C20.0804 12.331 21.5801 11.4121 22.8173 10.2069C23.777 11.6853 24.3408 13.4435 24.3408 15.3333C24.3408 17.2231 23.777 18.9813 22.8173 20.4593Z" fill="white"/>
</svg>
