<svg width="30" height="30" viewBox="0 0 30 30" fill="none" xmlns="http://www.w3.org/2000/svg">
<path d="M12.9275 14.4882C13.3777 14.2486 13.7182 13.9815 13.9515 13.693C14.3666 13.1734 14.5713 12.4843 14.5713 11.6303C14.5713 10.7992 14.3666 10.0886 13.9569 9.49287C13.2733 8.5225 12.1164 8.02584 10.4806 8H4V22H10.0425C10.7234 22 11.3541 21.9382 11.9374 21.8119C12.5206 21.6841 13.0251 21.4502 13.4524 21.1085C13.8322 20.8114 14.1496 20.4425 14.4018 20.0075C14.8006 19.3501 15 18.6051 15 17.7754C15 16.9715 14.825 16.2868 14.4777 15.7242C14.1265 15.1614 13.611 14.7495 12.9275 14.4882ZM6.67335 10.4316H9.5922C10.2337 10.4316 10.7627 10.5049 11.1778 10.6499C11.6579 10.8609 11.898 11.2901 11.898 11.9446C11.898 12.5317 11.7149 12.9423 11.3528 13.1734C10.9879 13.4045 10.5146 13.5208 9.934 13.5208H6.67335V10.4316ZM11.2889 19.3243C10.9662 19.4894 10.5118 19.5712 9.92995 19.5712H6.67335V15.8376H9.97473C10.5498 15.8418 10.9974 15.9222 11.3175 16.073C11.8872 16.3457 12.1706 16.8452 12.1706 17.5759C12.1706 18.4371 11.8776 19.0171 11.2889 19.3243Z" fill="white"/>
<path d="M23.8854 8.62549H18.0591V10.2949H23.8854V8.62549Z" fill="white"/>
<path d="M25.9097 15.214C25.7886 14.4371 25.5219 13.7537 25.1066 13.1637C24.6514 12.4954 24.0739 12.0059 23.3712 11.6965C22.6713 11.3857 21.8833 11.2303 21.006 11.2317C19.5333 11.2317 18.3369 11.6924 17.4115 12.6068C16.4888 13.524 16.0267 14.8427 16.0267 16.5616C16.0267 18.3947 16.5369 19.7189 17.5627 20.5316C18.5844 21.3456 19.7643 21.7513 21.1036 21.7513C22.7249 21.7513 23.9859 21.2686 24.8866 20.3061C25.4627 19.6983 25.7886 19.1001 25.8602 18.5129H23.1759C23.0205 18.8031 22.8404 19.03 22.6341 19.195C22.2601 19.4975 21.7733 19.6488 21.1765 19.6488C20.6086 19.6488 20.1273 19.5236 19.7258 19.2747C19.063 18.8759 18.7165 18.1774 18.6724 17.1832H25.9977C26.0087 16.3265 25.9812 15.6678 25.9097 15.214ZM18.7385 15.4712C18.8347 14.8262 19.0685 14.3147 19.4398 13.9365C19.811 13.5598 20.3363 13.37 21.0088 13.3686C21.6289 13.3686 22.1474 13.546 22.5695 13.9022C22.9862 14.2611 23.2213 14.7822 23.2694 15.4712H18.7385Z" fill="white"/>
</svg>
