<svg width="30" height="30" viewBox="0 0 30 30" fill="none" xmlns="http://www.w3.org/2000/svg">
<path d="M24.5251 9.47839C23.5414 7.79319 22.2072 6.45889 20.5219 5.47527C18.8363 4.49169 16.9963 4 15.0003 4C13.0046 4 11.1641 4.49169 9.47879 5.47527C7.79341 6.45874 6.45911 7.79303 5.47542 9.47839C4.49169 11.1638 4 13.0045 4 15C4 16.9956 4.49185 18.8359 5.47528 20.5215C6.45891 22.2066 7.79322 23.541 9.47859 24.5247C11.1641 25.5083 13.0045 26 15.0001 26C16.9958 26 18.8365 25.5083 20.5219 24.5247C22.2071 23.5413 23.5413 22.2066 24.5249 20.5215C25.5084 18.8361 26 16.9955 26 15C26.0001 13.0043 25.5084 11.1636 24.5251 9.47839ZM15.0002 5.6042C17.3682 5.6042 19.4356 6.38715 21.202 7.95301L21.0229 8.20349C20.9514 8.30393 20.7723 8.49708 20.4859 8.78368C20.1995 9.07003 19.8867 9.34234 19.5478 9.60009C19.2087 9.85795 18.7482 10.1515 18.1655 10.481C17.583 10.8104 16.9624 11.0995 16.3034 11.3477C15.2054 9.32317 14.031 7.4994 12.7801 5.87625C13.5346 5.69484 14.2745 5.6042 15.0002 5.6042ZM7.63835 9.17022C8.55496 8.01507 9.67199 7.12691 10.9898 6.50634C12.1738 8.08184 13.3387 9.88665 14.4846 11.9204C11.5818 12.6843 8.68865 13.0663 5.80493 13.0662C6.11065 11.6244 6.72174 10.3256 7.63835 9.17022ZM6.23446 18.3877C5.81425 17.3134 5.60421 16.1841 5.60421 15C5.60421 14.8662 5.60913 14.766 5.61856 14.6991C9.07535 14.6991 12.2886 14.2553 15.2582 13.3671C15.5638 13.9591 15.8168 14.489 16.0174 14.957C15.9787 14.9761 15.9171 14.9975 15.8311 15.0214C15.7449 15.0453 15.6829 15.0618 15.6445 15.0715L15.1146 15.2576C14.7516 15.3915 14.2764 15.6206 13.6894 15.9451C13.1022 16.2701 12.4792 16.6566 11.8203 17.1055C11.1614 17.5544 10.481 18.1488 9.77933 18.8891C9.07745 19.629 8.48783 20.4237 8.01039 21.2736C7.24649 20.4237 6.65456 19.4614 6.23446 18.3877ZM15.0002 24.3959C12.7658 24.3959 10.7701 23.6797 9.01308 22.2475L9.22795 22.4051C9.56212 21.6697 10.0539 20.9631 10.7032 20.2852C11.3526 19.6074 11.978 19.0605 12.5796 18.6451C13.1811 18.2299 13.8352 17.8385 14.5419 17.4704C15.2485 17.103 15.7305 16.8689 15.9884 16.7689C16.2463 16.6687 16.4517 16.5897 16.6044 16.5323L16.6329 16.5179H16.6617C17.5972 18.9719 18.266 21.3497 18.6669 23.6509C17.4828 24.1476 16.2607 24.3957 15.0002 24.3959ZM22.9069 20.0775C22.2003 21.1709 21.3168 22.0758 20.2572 22.7917C19.8654 20.5956 19.2547 18.3562 18.4236 16.0742C20.3239 15.7779 22.2765 15.9166 24.2818 16.4893C24.0716 17.7879 23.6132 18.9842 22.9069 20.0775ZM24.2529 14.8711C24.1574 14.8522 24.038 14.8305 23.8948 14.8067C23.7516 14.783 23.5771 14.7542 23.3718 14.7208C23.1668 14.6874 22.9373 14.6565 22.6844 14.6278C22.4313 14.5991 22.1617 14.5729 21.8749 14.5491C21.5886 14.525 21.283 14.5061 20.9584 14.4917C20.6334 14.4774 20.3042 14.4702 19.9699 14.4702C19.636 14.4702 19.2848 14.4799 18.9173 14.4988C18.5498 14.5177 18.1943 14.5514 17.8505 14.5992C17.8217 14.5513 17.7859 14.4725 17.7431 14.3626C17.7001 14.2529 17.6689 14.1692 17.6503 14.112C17.4686 13.7109 17.2585 13.2574 17.0196 12.7514C17.6785 12.4838 18.3065 12.176 18.9036 11.8274C19.5002 11.4788 19.9773 11.1687 20.3355 10.8966C20.6938 10.6242 21.0327 10.3353 21.3525 10.0298C21.6725 9.72431 21.8799 9.51195 21.9757 9.39256C22.0714 9.27296 22.1619 9.15607 22.2478 9.04164L22.2622 9.02719C23.6562 10.7268 24.368 12.6842 24.3963 14.8997L24.2529 14.8711Z" fill="white"/>
</svg>
