<svg width="31" height="30" viewBox="0 0 31 30" fill="none" xmlns="http://www.w3.org/2000/svg">
<circle cx="15" cy="15" r="15" fill="white"/>
<path d="M12.348 11.8558C12.348 10.4443 11.3877 10.4443 11.3877 10.4443H7.43692V13.4731H11.1428C11.7832 13.4728 12.348 13.268 12.348 11.8558Z" fill="#BD38C9"/>
<path d="M11.388 15.5651H7.43692V19.1927H11.2056C11.7725 19.1764 12.8189 18.9989 12.8189 17.4294C12.8189 15.5461 11.388 15.5651 11.388 15.5651Z" fill="#BD38C9"/>
<path d="M21.5029 13.4728C19.4063 13.4728 19.114 15.5651 19.114 15.5651H23.5726C23.5726 15.5651 23.5996 13.4728 21.5029 13.4728Z" fill="#BD38C9"/>
<path d="M15.2679 0C6.73469 0 0 6.73714 0 15C0 23.2629 6.42857 30 15.3061 30C23.5693 30 30.2296 23.2246 30.2296 14.9617C30.2296 6.69888 23.531 0 15.2679 0ZM18.5299 8.83102H24.1301V10.5024H18.5299V8.83102ZM15.6995 17.5978C15.6995 21.7405 11.3881 21.6043 11.3881 21.6043H4.3249V8.03143H11.3878C13.5343 8.03143 15.2287 9.21643 15.2287 11.6452C15.2287 14.0743 13.1574 14.2283 13.1574 14.2283C15.8878 14.2283 15.6995 17.5978 15.6995 17.5978ZM21.5296 19.7385C23.7857 19.7385 23.7058 18.2783 23.7058 18.2783H26.0945C26.0945 22.1535 21.45 21.8881 21.45 21.8881C15.8764 21.8881 16.2349 16.6993 16.2349 16.6993C16.2349 16.6993 16.2306 11.4848 21.4494 11.4848C26.9434 11.4848 26.1741 17.3761 26.1741 17.3761H19.1409C19.1409 19.8983 21.5296 19.7385 21.5296 19.7385Z" fill="#BD38C9"/>
</svg>
