<svg width="31" height="30" viewBox="0 0 31 30" fill="none" xmlns="http://www.w3.org/2000/svg">
<ellipse cx="15.2288" cy="15" rx="14.9998" ry="15" fill="white"/>
<path d="M18.0998 15.0002C18.0998 16.5857 16.8144 17.871 15.2287 17.871C13.643 17.871 12.3577 16.5857 12.3577 15.0002C12.3577 13.4147 13.643 12.1294 15.2287 12.1294C16.8144 12.1294 18.0998 13.4147 18.0998 15.0002Z" fill="#BD38C9"/>
<path d="M21.9432 9.92034C21.8052 9.54636 21.585 9.20785 21.2989 8.93C21.021 8.6439 20.6828 8.42372 20.3085 8.28571C20.005 8.16784 19.5491 8.02754 18.7094 7.98932C17.801 7.94789 17.5286 7.93896 15.2288 7.93896C12.9288 7.93896 12.6565 7.94766 11.7483 7.98909C10.9085 8.02754 10.4524 8.16784 10.1491 8.28571C9.77489 8.42372 9.43638 8.6439 9.15875 8.93C8.87265 9.20785 8.65247 9.54613 8.51423 9.92034C8.39636 10.2238 8.25606 10.68 8.21783 11.5197C8.17641 12.4279 8.16748 12.7003 8.16748 15.0002C8.16748 17.3 8.17641 17.5724 8.21783 18.4808C8.25606 19.3205 8.39636 19.7764 8.51423 20.0799C8.65247 20.4541 8.87242 20.7924 9.15852 21.0703C9.43638 21.3564 9.77466 21.5765 10.1489 21.7145C10.4524 21.8326 10.9085 21.9729 11.7483 22.0112C12.6565 22.0526 12.9286 22.0613 15.2286 22.0613C17.5288 22.0613 17.8012 22.0526 18.7091 22.0112C19.5489 21.9729 20.005 21.8326 20.3085 21.7145C21.0597 21.4248 21.6534 20.8311 21.9432 20.0799C22.0611 19.7764 22.2014 19.3205 22.2398 18.4808C22.2812 17.5724 22.2899 17.3 22.2899 15.0002C22.2899 12.7003 22.2812 12.4279 22.2398 11.5197C22.2016 10.68 22.0613 10.2238 21.9432 9.92034ZM15.2288 19.4228C12.786 19.4228 10.8058 17.4428 10.8058 15C10.8058 12.5572 12.786 10.5772 15.2288 10.5772C17.6714 10.5772 19.6517 12.5572 19.6517 15C19.6517 17.4428 17.6714 19.4228 15.2288 19.4228ZM19.8265 11.436C19.2557 11.436 18.7929 10.9732 18.7929 10.4024C18.7929 9.83154 19.2557 9.36875 19.8265 9.36875C20.3973 9.36875 20.8601 9.83154 20.8601 10.4024C20.8599 10.9732 20.3973 11.436 19.8265 11.436Z" fill="#BD38C9"/>
<path d="M15.2288 0C6.94589 0 0.229004 6.717 0.229004 15C0.229004 23.283 6.94589 30 15.2288 30C23.5116 30 30.2285 23.283 30.2285 15C30.2285 6.717 23.5116 0 15.2288 0ZM23.7899 18.5511C23.7483 19.468 23.6025 20.094 23.3896 20.6419C22.9422 21.7989 22.0276 22.7135 20.8706 23.161C20.3229 23.3739 19.6967 23.5194 18.78 23.5613C17.8615 23.6032 17.5681 23.6133 15.229 23.6133C12.8896 23.6133 12.5964 23.6032 11.6777 23.5613C10.7611 23.5194 10.1348 23.3739 9.58714 23.161C9.0122 22.9447 8.49173 22.6057 8.06144 22.1674C7.62337 21.7374 7.2844 21.2167 7.06811 20.6419C6.85525 20.0942 6.70946 19.468 6.6678 18.5513C6.62546 17.6326 6.61562 17.3392 6.61562 15C6.61562 12.6608 6.62546 12.3674 6.66757 11.4489C6.70923 10.532 6.8548 9.90601 7.06765 9.35806C7.28394 8.78334 7.62314 8.26263 8.06144 7.83257C8.4915 7.39426 9.0122 7.05528 9.58692 6.83899C10.1348 6.62613 10.7608 6.48056 11.6777 6.43867C12.5962 6.39679 12.8896 6.38672 15.2288 6.38672C17.5679 6.38672 17.8613 6.39679 18.7798 6.4389C19.6967 6.48056 20.3227 6.62613 20.8706 6.83876C21.4453 7.05505 21.966 7.39426 22.3963 7.83257C22.8344 8.26286 23.1736 8.78334 23.3896 9.35806C23.6027 9.90601 23.7483 10.532 23.7902 11.4489C23.8321 12.3674 23.8419 12.6608 23.8419 15C23.8419 17.3392 23.8321 17.6326 23.7899 18.5511Z" fill="#BD38C9"/>
</svg>
