<svg width="126" height="126" viewBox="0 0 126 126" fill="none" xmlns="http://www.w3.org/2000/svg">
<rect width="125.825" height="125.825" rx="10" fill="#12121F"/>
<path d="M39.593 23.3674H43.2951V26.9695H46.7075V23.3674H50.4097V34.2683H46.7075V30.6347H43.3273V34.2683H39.593V23.3674ZM55.3029 27.0011H52.0354V23.3674H62.2887V27.0011H59.005V34.2683H55.3029V27.0011ZM63.9144 23.3674H67.7936L70.1758 27.2064L72.558 23.3674H76.4372V34.2683H72.7351V28.8653L70.1436 32.7833L67.5521 28.8653V34.2683H63.9144V23.3674ZM78.2722 23.3674H81.9743V30.6663H87.2217V34.2683H78.2722" fill="white"/>
<path d="M39.4643 97.7777L34.1526 39.2605H92.5496L87.2379 97.7461L63.3028 104.255" fill="#E44D26"/>
<path d="M63.3511 99.2786V44.0632H87.2217L82.6665 93.9862" fill="#F16529"/>
<path d="M45.0015 51.2195H63.3511V58.3919H53.0174L53.6934 65.7382H63.3511V72.8948H46.9974L45.0015 51.2195ZM47.3193 76.4968H54.6592L55.1743 82.2316L63.3511 84.3802V91.8686L48.3495 87.7611" fill="#EBEBEB"/>
<path d="M81.6363 51.2195H63.3188V58.3919H80.9603L81.6363 51.2195ZM80.3003 65.7382H63.3188V72.9107H72.3327L71.4796 82.2317L63.3188 84.3803V91.8371L78.2883 87.7611" fill="white"/>
</svg>
