<svg width="126" height="126" viewBox="0 0 126 126" fill="none" xmlns="http://www.w3.org/2000/svg">
<rect width="125.825" height="125.825" rx="10" fill="#12121F"/>
<path d="M23 63V23H103V103H23" fill="#387BC9"/>
<path d="M40.54 63.1401V66.4001H50.94V96.0002H58.3201V66.4001H68.7201V63.2001C68.7201 61.4001 68.7201 59.9401 68.6401 59.9001C68.6401 59.8401 62.3001 59.8201 54.6 59.8201L40.6 59.8801V63.1601L40.54 63.1401V63.1401ZM87.2801 59.8001C89.3201 60.2801 90.8801 61.2001 92.2801 62.6601C93.0201 63.4601 94.1201 64.8601 94.2001 65.2201C94.2001 65.3401 90.7401 67.6801 88.6401 68.9801C88.5601 69.0401 88.2401 68.7001 87.9201 68.1801C86.8801 66.7001 85.8201 66.0601 84.1601 65.9401C81.7601 65.7801 80.1601 67.0401 80.1601 69.1401C80.1601 69.7801 80.2801 70.1401 80.5201 70.6601C81.0601 71.7601 82.0601 72.4201 85.1601 73.7801C90.8801 76.2401 93.3601 77.8601 94.8601 80.1801C96.5601 82.7801 96.9401 86.8601 95.8001 89.9201C94.5201 93.2601 91.4001 95.5201 86.9401 96.2601C85.5401 96.5001 82.3401 96.4602 80.8401 96.2002C77.6401 95.6001 74.5801 94.0001 72.7001 91.9401C71.9601 91.1401 70.5401 89.0001 70.6201 88.8601L71.3801 88.3801L74.3801 86.6401L76.6401 85.3201L77.1601 86.0201C77.8201 87.0601 79.3001 88.4601 80.1601 88.9401C82.7601 90.2801 86.2401 90.1001 87.9601 88.5401C88.7001 87.8601 89.0201 87.1401 89.0201 86.1401C89.0201 85.2201 88.8801 84.8001 88.4201 84.1001C87.7801 83.2201 86.5001 82.5001 82.9001 80.9001C78.7601 79.1401 77.0001 78.0201 75.3601 76.3001C74.4201 75.2601 73.5601 73.6401 73.1601 72.3001C72.8601 71.1401 72.7601 68.3001 73.0401 67.1601C73.9001 63.1601 76.9201 60.3601 81.2401 59.5601C82.6401 59.2801 85.9401 59.4001 87.3201 59.7601L87.2801 59.8001V59.8001Z" fill="white"/>
</svg>
