<svg width="127" height="126" viewBox="0 0 127 126" fill="none" xmlns="http://www.w3.org/2000/svg">
<rect x="0.301025" width="125.825" height="125.825" rx="10" fill="#12121F"/>
<path d="M88.2792 101H37.8319C30.1833 101 24 94.8296 24 87.1968V38.8032C24 31.1704 30.1833 25 37.8319 25H88.2792C95.9278 25 102.111 31.1704 102.111 38.8032V87.1968C102.111 94.8296 95.9278 101 88.2792 101Z" fill="#FF26BE"/>
<path d="M87.0421 97.751H39.0694C32.5612 97.751 27.2559 92.4567 27.2559 85.962V40.0377C27.2559 33.5431 32.5612 28.2488 39.0694 28.2488H87.0109C93.5535 28.2488 98.8244 33.5431 98.8244 40.0377V85.9308C98.8557 92.4567 93.5503 97.751 87.0421 97.751Z" fill="#2E001F"/>
<path d="M54.885 60.5633L63.999 78.0362C64.1614 78.295 64.0646 78.5569 63.8021 78.5569H58.1375C57.7782 78.5569 57.6157 78.4603 57.4533 78.136C55.3693 73.8488 53.254 69.5617 51.0732 64.9502H51.0075C49.0548 69.3029 46.9051 73.8831 44.8243 78.1703C44.6618 78.4291 44.4993 78.5289 44.2369 78.5289H38.8722C38.5473 78.5289 38.5129 78.2701 38.6785 78.0737L47.5956 61.1183L38.9722 43.9696C38.7753 43.7108 38.9722 43.5143 39.1659 43.5143H44.7649C45.0898 43.5143 45.2211 43.5798 45.3492 43.8729C47.3988 48.1601 49.4828 52.5782 51.4356 56.8966H51.5012C53.3884 52.6094 55.4724 48.1601 57.4908 43.9041C57.6532 43.6453 57.7501 43.4832 58.0782 43.4832H63.3179C63.5772 43.4832 63.6772 43.6796 63.5147 43.9384L54.885 60.5633ZM65.5956 65.8575C65.5956 58.2903 70.6415 52.3787 78.6464 52.3787C79.3306 52.3787 79.6868 52.3787 80.3398 52.4441V43.8386C80.3398 43.6422 80.5023 43.5143 80.6648 43.5143H85.8076C86.0669 43.5143 86.1325 43.611 86.1325 43.7731V73.5901C86.1325 74.4662 86.1325 75.57 86.295 76.7735C86.295 76.9699 86.2294 77.0323 86.0357 77.132C83.3018 78.4322 80.4367 79.0153 77.7028 79.0153C70.6384 79.0433 65.5924 74.6938 65.5956 65.8575ZM80.3367 57.5451C79.8805 57.3487 79.2306 57.2208 78.4495 57.2208C74.3471 57.2208 71.4851 60.37 71.4851 65.6019C71.4851 71.579 74.4159 73.9829 78.0933 73.9829C78.8745 73.9829 79.7212 73.8863 80.3398 73.6244V57.5451H80.3367Z" fill="#EBEBEB"/>
</svg>
