<svg width="127" height="126" viewBox="0 0 127 126" fill="none" xmlns="http://www.w3.org/2000/svg">
<rect x="0.650391" width="125.825" height="125.825" rx="10" fill="#12121F"/>
<path d="M93.3236 35.9751H34.1599L39.7065 95.6904L63.7384 102.457L87.7703 95.6904L93.3236 35.9751Z" fill="#E6A329"/>
<path d="M63.7383 40.8408V97.3975L83.2097 91.9204L87.9467 40.8408H63.7383Z" fill="#F1BF22"/>
<path d="M79.229 48.1665H49.2907L47.2053 70.5246L47.2486 70.3857H72.683L71.8535 79.8449L63.7385 82.1634L55.5035 79.8086L55.0105 74.0834H47.5351L48.6011 85.5238L63.7385 89.7903L78.8825 85.5238L80.9679 63.0697H53.9745L54.3209 55.5883H73.0494L73.3293 59.8748H80.8713L79.229 48.1665Z" fill="white"/>
<path d="M63.7452 48.1665H49.2907L47.2053 70.5247L47.2486 70.3857H63.7452V63.0929H55.0272L55.3736 55.6115H63.7452V48.1665ZM55.0272 74.0834H47.5351L48.6011 85.5172L63.7385 89.7771V82.1701L55.5036 79.8086L55.0272 74.0834Z" fill="#EBEBEB"/>
<path d="M57.9853 27.1679H52.7185V30.9218H61.7529V19.7725H57.9853V27.1679ZM74.7616 19.832H65.5806V23.7348C66.8065 24.9519 67.4461 25.5373 69.2517 27.3002H65.5806V30.859H74.7616V27.3068L71.0905 23.7414H74.7616V19.832Z" fill="white"/>
</svg>
