<svg width="150" height="150" viewBox="0 0 150 150" fill="none" xmlns="http://www.w3.org/2000/svg">
<rect width="150" height="150" rx="20" fill="#232336"/>
<path d="M16.4343 90.3921H21.1044V91.5868H17.7919V92.89H20.7242V94.0847H17.7919V95.4422H21.1587V96.6369H16.4343V90.3921Z" fill="white"/>
<path d="M22.1361 91.8581H23.4937V92.5641C23.548 92.4554 23.6566 92.3468 23.7652 92.2925C23.8738 92.1839 23.9824 92.1296 24.091 92.021C24.1996 91.9667 24.3082 91.9124 24.4711 91.8581C24.634 91.8038 24.7426 91.8038 24.9599 91.8038C25.2857 91.8038 25.5572 91.8581 25.7744 92.021C25.9916 92.1296 26.2088 92.3468 26.3174 92.5641C26.5346 92.2925 26.7518 92.1296 27.0234 91.9667C27.2949 91.8581 27.5664 91.7495 27.8922 91.7495C28.3809 91.7495 28.8153 91.9124 29.0869 92.1839C29.3584 92.4554 29.5213 92.9442 29.5213 93.4872V96.6368H28.1094V93.9759C28.1094 93.6501 28.0551 93.4329 27.8922 93.27C27.7293 93.1071 27.5664 92.9985 27.2949 92.9985C27.0234 92.9985 26.8604 93.1071 26.6975 93.27C26.5346 93.4329 26.4803 93.7044 26.4803 93.9759V96.6368H25.1228V93.9759C25.1228 93.6501 25.0685 93.4329 24.9055 93.27C24.7426 93.1071 24.5797 92.9985 24.3082 92.9985C24.0367 92.9985 23.8738 93.1071 23.7109 93.27C23.548 93.4329 23.4937 93.7044 23.4937 93.9759V96.6368H22.1361V91.8581Z" fill="white"/>
<path d="M30.4989 91.8583H31.8565V92.5642C32.0194 92.347 32.2366 92.1298 32.4538 92.0212C32.671 91.8583 32.9968 91.804 33.3226 91.804C33.5941 91.804 33.8657 91.8583 34.1372 91.9669C34.4087 92.0755 34.6259 92.2384 34.8431 92.4556C35.0603 92.6728 35.2232 92.9443 35.3318 93.2158C35.4404 93.5416 35.4947 93.8675 35.4947 94.3019C35.4947 94.682 35.4404 95.0621 35.3318 95.3879C35.2232 95.7138 35.0603 95.931 34.8431 96.1482C34.6259 96.3654 34.4087 96.5283 34.1372 96.6369C33.8657 96.7455 33.5941 96.7998 33.3226 96.7998C32.9425 96.7998 32.671 96.7455 32.3995 96.5826C32.1823 96.4197 31.9651 96.2568 31.8021 96.0939V98.1574H30.4446V91.8583H30.4989ZM32.9968 95.6051C33.1597 95.6051 33.3226 95.5508 33.4312 95.4965C33.5941 95.4422 33.7027 95.3336 33.8113 95.225C33.92 95.1164 34.0286 94.9535 34.0829 94.7906C34.1372 94.6277 34.1915 94.4648 34.1915 94.2476C34.1915 94.0304 34.1372 93.8675 34.0829 93.7046C34.0286 93.5416 33.92 93.3787 33.8113 93.2701C33.7027 93.1615 33.5941 93.0529 33.4312 92.9986C33.2683 92.9443 33.1597 92.89 32.9968 92.89C32.8339 92.89 32.671 92.9443 32.5624 92.9986C32.3995 93.0529 32.2909 93.1615 32.1823 93.2701C32.0737 93.3787 32.0194 93.5416 31.9108 93.7046C31.8565 93.8675 31.8021 94.0304 31.8021 94.2476C31.8021 94.4648 31.8565 94.6277 31.9108 94.7906C31.9651 94.9535 32.0737 95.1164 32.1823 95.225C32.2909 95.3336 32.3995 95.4422 32.5624 95.4965C32.671 95.5508 32.8339 95.6051 32.9968 95.6051Z" fill="white"/>
<path d="M36.4178 91.8581H37.7754V92.8356C37.9383 92.5098 38.1012 92.2382 38.3184 92.021C38.5357 91.8038 38.8615 91.7495 39.2959 91.7495V93.1614H39.2416C38.8072 93.1614 38.427 93.3243 38.1555 93.5958C37.884 93.8673 37.7754 94.3017 37.7754 94.8991V96.6911H36.4178V91.8581Z" fill="white"/>
<path d="M42.2823 96.7454C41.9022 96.7454 41.5764 96.6911 41.3049 96.5825C40.9791 96.4739 40.7076 96.3109 40.4904 96.0937C40.2732 95.8765 40.1102 95.605 39.9473 95.3335C39.8387 95.0077 39.7844 94.6819 39.7844 94.3017C39.7844 93.9759 39.8387 93.6501 39.9473 93.3243C40.0559 92.9985 40.2188 92.727 40.4361 92.5098C40.6533 92.2925 40.8705 92.1296 41.1963 91.9667C41.4678 91.8581 41.7936 91.7495 42.1737 91.7495C42.5539 91.7495 42.934 91.8038 43.2055 91.9667C43.477 92.1296 43.7485 92.2925 43.9114 92.5641C44.1286 92.7813 44.2373 93.1071 44.3459 93.3786C44.4545 93.7044 44.5088 94.0302 44.5088 94.356C44.5088 94.4103 44.5088 94.4647 44.5088 94.519C44.5088 94.5733 44.5088 94.6276 44.5088 94.6819H41.142C41.1963 95.0077 41.3592 95.2249 41.5764 95.3878C41.7936 95.5507 42.0108 95.605 42.3367 95.605C42.5539 95.605 42.7711 95.5507 42.934 95.4964C43.0969 95.4421 43.3141 95.2792 43.477 95.1163L44.2372 95.8222C44.02 96.0937 43.7485 96.3109 43.4227 96.4739C43.0969 96.6911 42.7168 96.7454 42.2823 96.7454ZM43.1512 93.8673C43.0969 93.5415 42.9883 93.3243 42.8254 93.1071C42.6625 92.9442 42.4453 92.8356 42.1194 92.8356C41.8479 92.8356 41.5764 92.9442 41.4135 93.1071C41.2506 93.27 41.142 93.5415 41.0877 93.8673H43.1512Z" fill="white"/>
<path d="M47.0611 96.7455C46.7352 96.7455 46.3551 96.6912 46.0293 96.5826C45.6492 96.474 45.3234 96.2568 44.9976 96.0396L45.5949 95.1708C45.8664 95.388 46.1379 95.4966 46.3551 95.6052C46.6266 95.7138 46.8439 95.7681 47.0611 95.7681C47.2783 95.7681 47.3869 95.7138 47.4955 95.6595C47.6041 95.6052 47.6584 95.4966 47.6584 95.388C47.6584 95.3337 47.6041 95.2794 47.6041 95.2251C47.5498 95.1708 47.4955 95.1165 47.3869 95.0622C47.2783 95.0079 47.1697 95.0079 47.0611 94.9536C46.9525 94.8992 46.7895 94.8993 46.6809 94.8449C46.518 94.7906 46.3551 94.7363 46.1922 94.682C46.0293 94.6277 45.8664 94.5191 45.7578 94.4105C45.5949 94.3019 45.4863 94.139 45.432 94.0304C45.3234 93.8675 45.3234 93.6503 45.3234 93.4331C45.3234 93.2159 45.3777 92.9987 45.4863 92.7814C45.5949 92.6185 45.7035 92.4556 45.8664 92.2927C46.0293 92.1841 46.1922 92.0755 46.4094 92.0212C46.6266 91.9669 46.8439 91.9126 47.1154 91.9126C47.4412 91.9126 47.7127 91.9669 48.0385 92.0755C48.3643 92.1841 48.6358 92.2927 48.9074 92.5099L48.3643 93.4331C48.1471 93.2702 47.8756 93.1616 47.6584 93.1073C47.4412 93.053 47.224 92.9987 47.0611 92.9987C46.8982 92.9987 46.7895 93.053 46.6809 93.1073C46.5723 93.1616 46.5723 93.2702 46.5723 93.3245C46.5723 93.3788 46.5723 93.4331 46.6266 93.4874C46.6809 93.5417 46.7352 93.596 46.8439 93.6503C46.9525 93.7046 47.0611 93.7589 47.1697 93.7589C47.2783 93.8132 47.3869 93.8675 47.5498 93.8675C47.7127 93.9218 47.8756 93.9761 48.0385 94.0847C48.2014 94.139 48.3643 94.2476 48.5272 94.3562C48.6901 94.4648 48.7988 94.5734 48.8531 94.7363C48.9617 94.8992 48.9617 95.0622 48.9617 95.2794C48.9617 95.5509 48.9074 95.7681 48.7988 95.9853C48.6901 96.2025 48.5815 96.3654 48.4186 96.474C48.2557 96.5826 48.0385 96.6912 47.8213 96.7455C47.5498 96.6912 47.3326 96.7455 47.0611 96.7455Z" fill="white"/>
<path d="M51.0796 96.7455C50.8624 96.7455 50.6452 96.6912 50.428 96.6369C50.2108 96.5826 50.0479 96.474 49.885 96.3654C49.7221 96.2568 49.6135 96.0939 49.5592 95.931C49.4506 95.7681 49.4506 95.5508 49.4506 95.2793C49.4506 95.0078 49.5049 94.7906 49.6135 94.5734C49.7221 94.3562 49.8307 94.2476 49.9936 94.0847C50.1565 93.9761 50.3737 93.8675 50.5909 93.8132C50.8081 93.7589 51.0796 93.7046 51.3512 93.7046C51.6227 93.7046 51.7856 93.7046 52.0028 93.7589C52.1657 93.8132 52.3829 93.8675 52.5458 93.9218V93.8675C52.5458 93.5959 52.4372 93.3787 52.2743 93.2158C52.1114 93.0529 51.8399 92.9986 51.5141 92.9986C51.2426 92.9986 51.0253 92.9986 50.8081 93.0529C50.5909 93.1072 50.3737 93.1615 50.1565 93.2701L49.8307 92.1841C50.1022 92.0755 50.3737 91.9669 50.6452 91.9126C50.9167 91.8583 51.2969 91.804 51.677 91.804C52.0571 91.804 52.3829 91.8583 52.6544 91.9669C52.9259 92.0755 53.1431 92.1841 53.3061 92.347C53.469 92.5099 53.6319 92.7271 53.6862 92.9986C53.7948 93.2701 53.7948 93.5416 53.7948 93.8675V96.6369H52.5458V96.0939C52.3829 96.2568 52.1657 96.4197 51.9485 96.5283C51.7313 96.6912 51.4055 96.7455 51.0796 96.7455ZM51.5141 95.8224C51.8399 95.8224 52.1114 95.7681 52.2743 95.6051C52.4915 95.4422 52.5458 95.225 52.5458 95.0078V94.7906C52.4372 94.7363 52.2743 94.682 52.1657 94.682C52.0028 94.6277 51.8399 94.6277 51.677 94.6277C51.4055 94.6277 51.1339 94.682 50.971 94.7906C50.8081 94.8992 50.6995 95.0621 50.6995 95.2793C50.6995 95.4422 50.7538 95.6051 50.9167 95.7138C51.0796 95.7681 51.2969 95.8224 51.5141 95.8224Z" fill="white"/>
<path d="M59.8222 96.7455C59.3335 96.7455 58.8991 96.6369 58.4103 96.474C57.9759 96.3111 57.5415 96.0396 57.1614 95.7138L57.9759 94.7363C58.2474 94.9535 58.5732 95.1707 58.8448 95.2793C59.1706 95.4422 59.4964 95.4966 59.8222 95.4966C60.0937 95.4966 60.3109 95.4422 60.4738 95.3336C60.6368 95.225 60.6911 95.0621 60.6911 94.8992C60.6911 94.7906 60.6911 94.7363 60.6368 94.682C60.5824 94.6277 60.5282 94.5734 60.4738 94.4648C60.3652 94.4105 60.2566 94.3562 60.0937 94.3019C59.9308 94.2476 59.7136 94.1933 59.4421 94.139C59.1163 94.0847 58.8448 93.9761 58.5732 93.8675C58.3017 93.7589 58.0845 93.6503 57.9216 93.5417C57.7587 93.3787 57.5958 93.2158 57.4872 92.9986C57.3786 92.7814 57.3243 92.5099 57.3243 92.2384C57.3243 91.9669 57.3786 91.6954 57.4872 91.4781C57.5958 91.2609 57.7587 91.0437 57.9216 90.8808C58.1388 90.7179 58.356 90.6093 58.6275 90.5007C58.8991 90.3921 59.1706 90.3921 59.4964 90.3921C59.9308 90.3921 60.3652 90.4464 60.7454 90.6093C61.1255 90.7722 61.5056 90.9351 61.8314 91.2066L61.1255 92.2384C60.854 92.0212 60.5825 91.9126 60.3109 91.804C60.0394 91.6954 59.7679 91.6411 59.4964 91.6411C59.2249 91.6411 59.0077 91.6954 58.8991 91.804C58.7905 91.9126 58.6819 92.0212 58.6819 92.1841C58.6819 92.2927 58.6819 92.347 58.7362 92.4556C58.7905 92.5099 58.8448 92.6185 58.9534 92.6728C59.062 92.7271 59.1706 92.7814 59.3878 92.8357C59.5507 92.89 59.7679 92.9443 60.0394 92.9986C60.3652 93.1072 60.6368 93.1615 60.9083 93.2701C61.1798 93.3787 61.3427 93.4873 61.5599 93.6503C61.7228 93.8132 61.8857 93.9761 61.94 94.139C62.0486 94.3562 62.0486 94.5734 62.0486 94.8449C62.0486 95.1707 61.9943 95.4422 61.8857 95.6595C61.7771 95.8767 61.6142 96.0939 61.397 96.2568C61.1798 96.4197 60.9626 96.5283 60.6911 96.6369C60.4738 96.6912 60.148 96.7455 59.8222 96.7455Z" fill="white"/>
<path d="M64.3838 96.7454C64.1666 96.7454 63.9494 96.6911 63.7322 96.6368C63.515 96.5825 63.3521 96.4739 63.1892 96.3653C63.0263 96.2567 62.9176 96.0938 62.809 95.9309C62.7004 95.768 62.7004 95.5507 62.7004 95.2792C62.7004 95.0077 62.7547 94.7905 62.8633 94.5733C62.972 94.3561 63.0806 94.2475 63.2435 94.0846C63.4064 93.976 63.6236 93.8674 63.8408 93.8131C64.058 93.7587 64.3295 93.7044 64.601 93.7044C64.8725 93.7044 65.0355 93.7044 65.2527 93.7588C65.4156 93.8131 65.6328 93.8674 65.7957 93.9217V93.8674C65.7957 93.5958 65.6871 93.3786 65.5242 93.2157C65.3613 93.0528 65.0898 92.9985 64.7639 92.9985C64.4924 92.9985 64.2752 92.9985 64.058 93.0528C63.8408 93.1071 63.6236 93.1614 63.4064 93.27L63.0806 92.2383C63.3521 92.1297 63.6236 92.0211 63.8951 91.9668C64.1666 91.9125 64.5467 91.8582 64.9269 91.8582C65.307 91.8582 65.6328 91.9125 65.9043 92.0211C66.1758 92.1297 66.393 92.2383 66.5559 92.4012C66.7188 92.5641 66.8818 92.7813 66.9361 93.0528C67.0447 93.3243 67.0447 93.5958 67.0447 93.9217V96.6911H65.7414V96.1481C65.5785 96.311 65.3613 96.4739 65.1441 96.5825C65.0355 96.6911 64.7096 96.7454 64.3838 96.7454ZM64.8183 95.8223C65.1441 95.8223 65.4156 95.768 65.5785 95.605C65.7957 95.4421 65.85 95.2249 65.85 95.0077V94.7905C65.7414 94.7362 65.5785 94.6819 65.4699 94.6819C65.307 94.6276 65.1441 94.6276 64.9812 94.6276C64.7096 94.6276 64.4381 94.6819 64.2752 94.7905C64.1123 94.8991 64.0037 95.062 64.0037 95.2792C64.0037 95.4421 64.058 95.605 64.2209 95.7136C64.4381 95.768 64.601 95.8223 64.8183 95.8223Z" fill="white"/>
<path d="M69.651 90.1206H68.2935V96.6369H69.651V90.1206Z" fill="white"/>
<path d="M70.3571 91.8582H71.7689L72.855 95.062L73.941 91.8582H75.3529L73.4523 96.6911H72.2577L70.3571 91.8582Z" fill="white"/>
<path d="M77.3621 96.7454C77.1449 96.7454 76.9277 96.6911 76.7105 96.6368C76.4933 96.5825 76.3304 96.4739 76.1675 96.3653C76.0045 96.2567 75.8959 96.0938 75.8416 95.9309C75.733 95.768 75.733 95.5507 75.733 95.2792C75.733 95.0077 75.7873 94.7905 75.8959 94.5733C76.0045 94.3561 76.1132 94.2475 76.2761 94.0846C76.439 93.976 76.6562 93.8674 76.8734 93.8131C77.0906 93.7587 77.3621 93.7044 77.6336 93.7044C77.9051 93.7044 78.068 93.7044 78.2853 93.7588C78.4482 93.8131 78.6654 93.8674 78.8283 93.9217V93.8674C78.8283 93.5958 78.7197 93.3786 78.5568 93.2157C78.3939 93.0528 78.1224 92.9985 77.7965 92.9985C77.525 92.9985 77.3078 92.9985 77.0906 93.0528C76.8734 93.1071 76.6562 93.1614 76.439 93.27L76.1131 92.2383C76.3847 92.1297 76.6562 92.0211 76.9277 91.9668C77.1992 91.9125 77.5793 91.8582 77.9594 91.8582C78.3396 91.8582 78.6654 91.9125 78.9369 92.0211C79.2084 92.1297 79.4256 92.2383 79.5885 92.4012C79.7514 92.5641 79.9143 92.7813 79.9686 93.0528C80.0773 93.3243 80.0773 93.5958 80.0773 93.9217V96.6911H78.774V96.1481C78.6111 96.311 78.3939 96.4739 78.1767 96.5825C78.0137 96.6911 77.6879 96.7454 77.3621 96.7454ZM77.7965 95.8223C78.1224 95.8223 78.3939 95.768 78.5568 95.605C78.774 95.4421 78.8283 95.2249 78.8283 95.0077V94.7905C78.7197 94.7362 78.5568 94.6819 78.4482 94.6819C78.2853 94.6276 78.1224 94.6276 77.9594 94.6276C77.6879 94.6276 77.4164 94.6819 77.2535 94.7905C77.0906 94.8991 76.982 95.062 76.982 95.2792C76.982 95.4421 77.0363 95.605 77.1992 95.7136C77.3621 95.768 77.5793 95.8223 77.7965 95.8223Z" fill="white"/>
<path d="M83.1183 96.7454C82.8468 96.7454 82.5752 96.6911 82.3037 96.5825C82.0322 96.4739 81.815 96.311 81.5978 96.0938C81.3806 95.8766 81.2177 95.605 81.1091 95.3335C81.0005 95.0077 80.9462 94.6819 80.9462 94.2475C80.9462 93.8674 81.0005 93.4872 81.1091 93.1614C81.2177 92.8356 81.3806 92.6184 81.5978 92.4012C81.815 92.184 82.0322 92.0211 82.3037 91.9125C82.5752 91.8039 82.8468 91.7495 83.1183 91.7495C83.4984 91.7495 83.7699 91.8039 84.0414 91.9668C84.2586 92.1297 84.4758 92.2926 84.6388 92.4555V90.0662H85.9963V96.5825H84.6388V95.9852C84.4758 96.2024 84.2586 96.4196 84.0414 96.5282C83.8242 96.6911 83.4984 96.7454 83.1183 96.7454ZM83.4984 95.605C83.6613 95.605 83.8242 95.5507 83.9328 95.4964C84.0957 95.4421 84.2043 95.3335 84.3129 95.2249C84.4215 95.1163 84.4758 94.9534 84.5845 94.7905C84.6388 94.6276 84.6931 94.4647 84.6931 94.2475C84.6931 94.0303 84.6388 93.8674 84.5845 93.7044C84.5301 93.5415 84.4215 93.3786 84.3129 93.27C84.2043 93.1614 84.0957 93.0528 83.9328 92.9985C83.7699 92.9442 83.6613 92.8899 83.4984 92.8899C83.3355 92.8899 83.1726 92.9442 83.064 92.9985C82.9011 93.0528 82.7925 93.1614 82.6839 93.27C82.5752 93.3786 82.4666 93.5415 82.4123 93.7044C82.358 93.8674 82.3037 94.0303 82.3037 94.2475C82.3037 94.4647 82.358 94.6276 82.4123 94.7905C82.4666 94.9534 82.5752 95.1163 82.6839 95.2249C82.7925 95.3335 82.9011 95.4421 83.064 95.4964C83.1726 95.5507 83.3355 95.605 83.4984 95.605Z" fill="white"/>
<path d="M89.4172 96.7453C89.0371 96.7453 88.7113 96.691 88.3854 96.5281C88.0596 96.4195 87.7881 96.2023 87.5709 95.9851C87.3537 95.7679 87.1365 95.4964 87.0279 95.1705C86.9193 94.8447 86.8107 94.5189 86.8107 94.1931C86.8107 93.8673 86.865 93.5415 87.0279 93.2156C87.1365 92.8898 87.3537 92.6726 87.5709 92.4011C87.7881 92.1839 88.0596 92.021 88.3854 91.8581C88.7113 91.7495 89.0371 91.6409 89.4172 91.6409C89.7973 91.6409 90.1231 91.6952 90.449 91.8581C90.7748 91.9667 91.0463 92.1839 91.2635 92.4011C91.4807 92.6183 91.6979 92.8898 91.8065 93.2156C91.9151 93.5415 92.0237 93.8673 92.0237 94.1931C92.0237 94.5189 91.9694 94.8447 91.8065 95.1705C91.6979 95.4964 91.4807 95.7136 91.2635 95.9851C91.0463 96.2023 90.7748 96.3652 90.449 96.5281C90.1774 96.691 89.7973 96.7453 89.4172 96.7453ZM89.4715 95.605C89.6887 95.605 89.8516 95.5507 90.0145 95.4964C90.1774 95.4421 90.286 95.3335 90.3946 95.2248C90.5033 95.1162 90.5576 94.9533 90.6662 94.7904C90.7205 94.6275 90.7748 94.4646 90.7748 94.3017C90.7748 94.1388 90.7205 93.9759 90.6662 93.813C90.6119 93.6501 90.5033 93.5415 90.3946 93.3786C90.286 93.27 90.1231 93.1613 90.0145 93.107C89.8516 93.0527 89.6887 92.9984 89.5258 92.9984C89.3086 92.9984 89.1457 93.0527 88.9828 93.107C88.8199 93.1613 88.7113 93.27 88.6027 93.3786C88.494 93.4872 88.4397 93.6501 88.3311 93.813C88.2768 93.9759 88.2225 94.1388 88.2225 94.3017C88.2225 94.4646 88.2768 94.6275 88.3311 94.7904C88.3854 94.9533 88.494 95.1162 88.6027 95.2248C88.7113 95.3335 88.8742 95.4421 88.9828 95.4964C89.0914 95.5507 89.2543 95.605 89.4715 95.605Z" fill="white"/>
<path d="M92.8928 91.8581H94.2504V92.8356C94.4133 92.5098 94.5762 92.2382 94.7934 92.021C95.0106 91.8038 95.3364 91.7495 95.7709 91.7495V93.1614H95.7166C95.2821 93.1614 94.902 93.3243 94.6305 93.5958C94.359 93.8673 94.2504 94.3017 94.2504 94.8991V96.6911H92.8928V91.8581Z" fill="white"/>
<path d="M100.658 91.6411H98.7573V90.3921H103.916V91.6411H102.015V96.6369H100.658V91.6411Z" fill="white"/>
<path d="M106.305 96.7454C105.762 96.7454 105.382 96.5825 105.111 96.2567C104.839 95.9309 104.676 95.4964 104.676 94.9534V91.8582H106.034V94.519C106.034 94.8448 106.088 95.062 106.251 95.2249C106.414 95.3878 106.577 95.4964 106.848 95.4964C107.12 95.4964 107.337 95.3878 107.446 95.2249C107.609 95.062 107.663 94.8448 107.663 94.519V91.8582H109.02V96.6368H107.663V95.9852C107.609 96.0938 107.5 96.2024 107.391 96.2567C107.283 96.3653 107.174 96.4196 107.066 96.5282C106.957 96.5825 106.848 96.6368 106.685 96.6911C106.631 96.7454 106.468 96.7454 106.305 96.7454Z" fill="white"/>
<path d="M110.161 91.8581H111.518V92.8356C111.681 92.5098 111.844 92.2382 112.061 92.021C112.279 91.8038 112.605 91.7495 113.039 91.7495V93.1614H112.985C112.55 93.1614 112.17 93.3243 111.899 93.5958C111.627 93.8673 111.518 94.3017 111.518 94.8991V96.6911H110.161V91.8581Z" fill="white"/>
<path d="M113.799 90.1206H115.211V91.3153H113.799V90.1206ZM113.854 91.8583H115.211V96.6369H113.854V91.8583Z" fill="white"/>
<path d="M118.035 96.7455C117.709 96.7455 117.329 96.6912 117.003 96.5826C116.623 96.474 116.297 96.2568 115.971 96.0396L116.569 95.1708C116.84 95.388 117.112 95.4966 117.329 95.6052C117.601 95.7138 117.818 95.7681 118.035 95.7681C118.252 95.7681 118.361 95.7138 118.469 95.6595C118.578 95.6052 118.632 95.4966 118.632 95.388C118.632 95.3337 118.578 95.2794 118.524 95.2251C118.469 95.1708 118.415 95.1165 118.306 95.0622C118.198 95.0079 118.089 95.0079 117.981 94.9536C117.872 94.8992 117.709 94.8993 117.601 94.8449C117.438 94.7906 117.275 94.7363 117.112 94.682C116.949 94.6277 116.786 94.5191 116.623 94.4105C116.46 94.3019 116.352 94.139 116.297 94.0304C116.189 93.8675 116.189 93.6503 116.189 93.4331C116.189 93.2159 116.243 92.9987 116.352 92.7814C116.46 92.6185 116.569 92.4556 116.732 92.2927C116.895 92.1841 117.057 92.0755 117.275 92.0212C117.492 91.9669 117.709 91.9126 117.981 91.9126C118.306 91.9126 118.578 91.9669 118.904 92.0755C119.23 92.1841 119.501 92.2927 119.773 92.5099L119.23 93.4331C119.012 93.2702 118.741 93.1616 118.524 93.1073C118.306 93.053 118.089 92.9987 117.926 92.9987C117.763 92.9987 117.655 93.053 117.546 93.1073C117.438 93.1616 117.438 93.2702 117.438 93.3245C117.438 93.3788 117.438 93.4331 117.546 93.4874C117.601 93.5417 117.655 93.596 117.763 93.6503C117.872 93.7046 117.981 93.7589 118.089 93.7589C118.198 93.8132 118.306 93.8675 118.469 93.8675C118.632 93.9218 118.795 93.9761 118.958 94.0847C119.121 94.139 119.284 94.2476 119.447 94.3562C119.61 94.4648 119.718 94.5734 119.773 94.7363C119.881 94.8992 119.881 95.0622 119.881 95.2794C119.881 95.5509 119.827 95.7681 119.718 95.9853C119.61 96.2025 119.501 96.3654 119.338 96.474C119.175 96.5826 118.958 96.6912 118.741 96.7455C118.524 96.6912 118.252 96.7455 118.035 96.7455Z" fill="white"/>
<path d="M120.696 91.8581H122.053V92.5641C122.107 92.4554 122.216 92.3468 122.325 92.2925C122.433 92.1839 122.542 92.1296 122.65 92.021C122.759 91.9667 122.868 91.9124 123.031 91.8581C123.193 91.8038 123.302 91.8038 123.519 91.8038C123.845 91.8038 124.117 91.8581 124.334 92.021C124.551 92.1296 124.768 92.3468 124.877 92.5641C125.094 92.2925 125.311 92.1296 125.583 91.9667C125.854 91.8581 126.126 91.7495 126.452 91.7495C126.94 91.7495 127.375 91.9124 127.646 92.1839C127.918 92.4554 128.081 92.9442 128.081 93.4872V96.6368H126.723V93.9759C126.723 93.6501 126.669 93.4329 126.506 93.27C126.343 93.1071 126.18 92.9985 125.909 92.9985C125.637 92.9985 125.474 93.1071 125.311 93.27C125.148 93.4329 125.094 93.7044 125.094 93.9759V96.6368H123.682V93.9759C123.682 93.6501 123.628 93.4329 123.465 93.27C123.302 93.1071 123.139 92.9985 122.868 92.9985C122.596 92.9985 122.433 93.1071 122.27 93.27C122.107 93.4329 122.053 93.7044 122.053 93.9759V96.6368H120.696V91.8581Z" fill="white"/>
<path d="M131.393 96.7453C131.013 96.7453 130.687 96.691 130.362 96.5281C130.036 96.4195 129.764 96.2023 129.547 95.9851C129.33 95.7679 129.113 95.4964 129.004 95.1705C128.895 94.8447 128.787 94.5189 128.787 94.1931C128.787 93.8673 128.841 93.5415 129.004 93.2156C129.113 92.8898 129.33 92.6726 129.547 92.4011C129.764 92.1839 130.036 92.021 130.362 91.8581C130.687 91.7495 131.013 91.6409 131.393 91.6409C131.774 91.6409 132.099 91.6952 132.425 91.8581C132.751 91.9667 133.022 92.1839 133.24 92.4011C133.457 92.6183 133.674 92.8898 133.783 93.2156C133.891 93.5415 134 93.8673 134 94.1931C134 94.5189 133.946 94.8447 133.783 95.1705C133.674 95.4964 133.457 95.7136 133.24 95.9851C133.022 96.2023 132.751 96.3652 132.425 96.5281C132.154 96.691 131.774 96.7453 131.393 96.7453ZM131.448 95.605C131.665 95.605 131.828 95.5507 131.991 95.4964C132.154 95.4421 132.262 95.3335 132.371 95.2248C132.479 95.1162 132.534 94.9533 132.642 94.7904C132.697 94.6275 132.751 94.4646 132.751 94.3017C132.751 94.1388 132.697 93.9759 132.642 93.813C132.588 93.6501 132.479 93.5415 132.371 93.3786C132.262 93.27 132.099 93.1613 131.991 93.107C131.828 93.0527 131.665 92.9984 131.502 92.9984C131.285 92.9984 131.122 93.0527 130.959 93.107C130.796 93.1613 130.687 93.27 130.579 93.3786C130.47 93.4872 130.362 93.6501 130.307 93.813C130.253 93.9759 130.199 94.1388 130.199 94.3017C130.199 94.4646 130.253 94.6275 130.307 94.7904C130.362 94.9533 130.47 95.1162 130.579 95.2248C130.687 95.3335 130.85 95.4421 130.959 95.4964C131.068 95.5507 131.23 95.605 131.448 95.605Z" fill="white"/>
<path d="M31.9122 81.5896C30.5016 83.0243 28.0752 84 24.9718 84C21.8683 84 19.4984 83.0817 18.0878 81.647C16.5078 80.04 16 77.8017 16 74.473H22.3197C22.3197 75.793 22.4326 76.7687 22.9969 77.4C23.3354 77.8017 23.9561 78.1461 24.9718 78.1461C25.931 78.1461 26.5517 77.8591 27.0031 77.3426C27.4545 76.8261 27.6238 75.9078 27.6238 74.6452C27.6238 71.5461 27.116 71.0296 24.8589 70.0539L20.8527 68.3896C17.6364 67.0122 16.2821 65.2904 16.2821 60.24C16.2821 57.2557 17.2414 54.7304 19.1599 53.0661C20.6834 51.7461 22.6019 51 25.0282 51C27.8495 51 29.8809 51.7461 31.2915 53.0661C33.0408 54.673 33.7743 57.313 33.7743 60.5843H27.3417C27.3417 59.4365 27.3417 58.4035 26.7774 57.6574C26.4389 57.1409 25.8746 56.8539 24.9718 56.8539C24.069 56.8539 23.5047 57.1983 23.1661 57.7148C22.7712 58.2313 22.6583 58.92 22.6583 60.0104C22.6583 62.0765 22.9969 62.6504 24.8589 63.3965L28.8088 65.0035C32.815 66.6678 34 68.5043 34 74.3583C33.9436 77.687 33.5486 79.9252 31.9122 81.5896Z" fill="white"/>
<path d="M51.2725 84L50.2375 78.8419H42.7625L41.7275 84H35L43.28 51H49.6625L58 84H51.2725ZM46.5 60.6714L43.97 72.9218H48.9725L46.5 60.6714Z" fill="white"/>
<path d="M60 84V51H66.5192V78.0799H75V84H60Z" fill="white"/>
<path d="M85.3377 56.9201V84H78.6623V56.9201H73V51H91V56.9201H85.3377Z" fill="white"/>
<path d="M108.623 81.2789C106.925 83.0737 104.66 84 102 84C99.3396 84 97.0755 83.0737 95.3774 81.2789C93.8491 79.6579 93 77.4579 93 74.8526V51H99.3396V75.2C99.3396 77.2842 100.528 78.1526 102 78.1526C103.415 78.1526 104.66 77.3421 104.66 75.2V51H111V74.8526C111 77.4579 110.094 79.6579 108.623 81.2789Z" fill="white"/>
<path d="M127.327 83.9415L123.426 71.1277H121.333V83.9415H115V51H124.104C131.06 51 132.982 54.7447 132.982 61.0638C132.982 64.5745 132.473 67.734 129.363 69.7234L134 84H127.327V83.9415ZM123.991 56.9096H121.333V65.2181H123.991C126.423 65.2181 126.536 62.9362 126.536 61.0638C126.592 59.133 126.423 56.9096 123.991 56.9096Z" fill="white"/>
</svg>
