<svg width="30" height="30" viewBox="0 0 30 30" fill="none" xmlns="http://www.w3.org/2000/svg">
<path d="M23.995 24V23.9992H24V17.033C24 13.6251 23.2231 11 19.0039 11C16.9758 11 15.6146 12.0511 15.0589 13.0474H15.0003V11.3181H11V23.9992H15.1654V17.7199C15.1654 16.0667 15.4973 14.468 17.6655 14.468C19.8019 14.468 19.8337 16.3548 19.8337 17.8261V24H23.995Z" fill="white"/>
<path d="M5.3136 11.3152H9.25294V24H5.3136V11.3152Z" fill="white"/>
<path d="M7.28159 5C6.02204 5 5 6.02204 5 7.28159C5 8.54112 6.02204 9.58459 7.28159 9.58459C8.54112 9.58459 9.56313 8.54112 9.56313 7.28159C9.56235 6.02204 8.54034 5 7.28159 5Z" fill="white"/>
</svg>
