<svg width="30" height="30" viewBox="0 0 30 30" fill="none" xmlns="http://www.w3.org/2000/svg">
<path d="M19.3382 24.9423C19.3382 23.4868 18.873 22.5372 18.351 22.0532C20.8724 21.7521 23.4934 20.8873 24.5329 17.6965C24.5541 17.6343 24.5731 17.5709 24.5898 17.5063C24.6478 17.3121 24.6999 17.1089 24.7461 16.8968C24.7598 16.8359 24.7734 16.77 24.786 16.7054C24.9329 15.9316 25.0046 15.1436 24.9998 14.3539C24.9998 12.651 24.4345 11.2589 23.5008 10.166C23.6526 9.77289 24.1513 8.18573 23.3586 6.036C23.3586 6.036 22.1377 5.61727 19.3586 7.63596C16.9725 6.93543 14.4545 6.93543 12.0684 7.63596C9.28535 5.61727 8.06272 6.036 8.06272 6.036C7.27228 8.18573 7.76929 9.77289 7.9217 10.166C6.99079 11.2589 6.42156 12.651 6.42156 14.3539C6.41525 15.1437 6.48577 15.932 6.63197 16.706C6.64448 16.7706 6.65756 16.8346 6.67121 16.8974C6.71708 17.1091 6.7694 17.3123 6.82816 17.5069C6.84692 17.5709 6.86739 17.6349 6.88502 17.6971C7.92454 20.8824 10.5381 21.7595 13.0522 22.0654C12.6359 22.4555 12.256 23.1437 12.1275 24.1524C11.2996 24.551 9.19095 25.2397 7.89383 22.8547C7.89383 22.8547 7.12386 21.3566 5.6624 21.2469C5.6624 21.2469 4.24074 21.2268 5.56288 22.1946C5.56288 22.1946 6.51653 22.6749 7.17902 24.4779C7.17902 24.4779 8.03202 27.2633 12.0837 26.3192C12.09 27.6229 12.1031 28.8523 12.1031 29.2241C12.1032 29.3157 12.0899 29.4068 12.0638 29.4941C12.5446 29.6313 13.0319 29.7409 13.5236 29.8226C13.6771 29.8476 13.8318 29.8708 13.9871 29.8909C14.4919 29.9566 14.9997 29.993 15.5082 30H15.7112H15.9142C16.4232 29.9928 16.9313 29.9562 17.4366 29.8903C17.5918 29.8702 17.7465 29.847 17.9 29.822C18.392 29.7399 18.8796 29.6303 19.3609 29.4935C19.3355 29.4061 19.3227 29.315 19.3228 29.2235C19.3217 28.7103 19.3382 27.0299 19.3382 24.9423Z" fill="white"/>
</svg>
