<svg width="30" height="30" viewBox="0 0 30 30" fill="none" xmlns="http://www.w3.org/2000/svg">
<path d="M25.9401 11.1741C25.8885 10.0583 25.6995 9.29115 25.4287 8.62644C25.1494 7.92086 24.7196 7.28916 24.1566 6.76402C23.6064 6.23071 22.9402 5.81631 22.2096 5.55382C21.5092 5.29534 20.7098 5.1149 19.5408 5.0657C18.3631 5.01234 17.9892 5 15.0023 5C12.0153 5 11.6415 5.01234 10.4682 5.06154C9.29922 5.11073 8.49553 5.29133 7.79933 5.54965C7.05998 5.81631 6.39819 6.22655 5.84804 6.76402C5.28933 7.28916 4.85536 7.92503 4.5802 8.62243C4.30941 9.29115 4.12037 10.0541 4.06883 11.1699C4.01293 12.2941 4 12.6509 4 15.5021C4 18.3532 4.01293 18.7101 4.06447 19.8301C4.116 20.9459 4.30521 21.713 4.576 22.3777C4.85536 23.0833 5.28933 23.715 5.84804 24.2401C6.39819 24.7735 7.06434 25.1879 7.79496 25.4503C8.49553 25.7088 9.29482 25.8893 10.464 25.9385C11.6371 25.9878 12.0111 26 14.9981 26C17.985 26 18.3589 25.9878 19.5322 25.9385C20.7012 25.8893 21.5048 25.7088 22.2011 25.4503C23.6796 24.9047 24.8485 23.7889 25.4201 22.3777C25.6908 21.709 25.88 20.9459 25.9316 19.8301C25.9831 18.7101 25.996 18.3532 25.996 15.5021C25.996 12.6509 25.9916 12.2941 25.9401 11.1741ZM23.9589 19.748C23.9116 20.7736 23.7311 21.3275 23.5807 21.6967C23.211 22.6115 22.4503 23.3376 21.4919 23.6905C21.1051 23.8341 20.5207 24.0063 19.4505 24.0514C18.2901 24.1007 17.942 24.1129 15.0067 24.1129C12.0712 24.1129 11.7188 24.1007 10.5627 24.0514C9.48821 24.0063 8.90801 23.8341 8.52122 23.6905C8.04426 23.5222 7.61013 23.2556 7.25774 22.9069C6.89243 22.5663 6.61308 22.1561 6.4368 21.7008C6.28637 21.3316 6.10591 20.7736 6.05874 19.7522C6.00702 18.6446 5.99427 18.3122 5.99427 15.5103C5.99427 12.7083 6.00702 12.3719 6.05874 11.2685C6.10591 10.2429 6.28637 9.68905 6.4368 9.31983C6.61308 8.86441 6.89243 8.45016 7.2621 8.11364C7.61869 7.76494 8.04847 7.49828 8.52559 7.33018C8.91238 7.1866 9.49691 7.01433 10.5671 6.96914C11.7274 6.91994 12.0756 6.9076 15.0109 6.9076C17.9506 6.9076 18.2987 6.91994 19.4548 6.96914C20.5293 7.01433 21.1094 7.1866 21.4962 7.33018C21.9732 7.49828 22.4074 7.76494 22.7598 8.11364C23.1251 8.45417 23.4044 8.86441 23.5807 9.31983C23.7311 9.68905 23.9116 10.2469 23.9589 11.2685C24.0104 12.3761 24.0234 12.7083 24.0234 15.5103C24.0234 18.3122 24.0104 18.6404 23.9589 19.748Z" fill="white"/>
<path d="M15.0022 10.1077C11.8822 10.1077 9.35071 12.5239 9.35071 15.5023C9.35071 18.4807 11.8822 20.8969 15.0022 20.8969C18.1225 20.8969 20.6539 18.4807 20.6539 15.5023C20.6539 12.5239 18.1225 10.1077 15.0022 10.1077ZM15.0022 19.0016C12.9781 19.0016 11.3363 17.4346 11.3363 15.5023C11.3363 13.57 12.9781 12.0029 15.0022 12.0029C17.0266 12.0029 18.6683 13.57 18.6683 15.5023C18.6683 17.4346 17.0266 19.0016 15.0022 19.0016Z" fill="white"/>
<path d="M22.197 9.89416C22.197 10.5896 21.6061 11.1536 20.8774 11.1536C20.1487 11.1536 19.558 10.5896 19.558 9.89416C19.558 9.19852 20.1487 8.63477 20.8774 8.63477C21.6061 8.63477 22.197 9.19852 22.197 9.89416Z" fill="white"/>
</svg>
