<svg width="127" height="126" viewBox="0 0 127 126" fill="none" xmlns="http://www.w3.org/2000/svg">
<rect x="0.301025" width="125.825" height="125.825" rx="10" fill="#12121F"/>
<path d="M50.54 100.66C57.4353 100.66 63.0314 95.0232 63.0314 88.0776V75.4951H50.54C43.6447 75.4951 38.0486 81.1321 38.0486 88.0776C38.0486 95.0232 43.6447 100.66 50.54 100.66Z" fill="#0ACF83"/>
<path d="M38.0486 62.9126C38.0486 55.967 43.6447 50.3301 50.54 50.3301H63.0314V75.4951H50.54C43.6447 75.4951 38.0486 69.8581 38.0486 62.9126Z" fill="#A259FF"/>
<path d="M38.0488 37.7476C38.0488 30.802 43.645 25.165 50.5402 25.165H63.0317V50.3301H50.5402C43.645 50.3301 38.0488 44.6931 38.0488 37.7476Z" fill="#F24E1E"/>
<path d="M63.0315 25.165H75.5229C82.4182 25.165 88.0143 30.802 88.0143 37.7476C88.0143 44.6931 82.4182 50.3301 75.5229 50.3301H63.0315V25.165Z" fill="#FF7262"/>
<path d="M88.0143 62.9126C88.0143 69.8581 82.4182 75.4951 75.5229 75.4951C68.6276 75.4951 63.0315 69.8581 63.0315 62.9126C63.0315 55.967 68.6276 50.3301 75.5229 50.3301C82.4182 50.3301 88.0143 55.967 88.0143 62.9126Z" fill="#1ABCFE"/>
</svg>
