<svg width="126" height="126" viewBox="0 0 126 126" fill="none" xmlns="http://www.w3.org/2000/svg">
<rect width="125.825" height="125.825" rx="10" fill="#12121F"/>
<path d="M103 62.5817C103 57.2892 96.3632 52.2736 86.1879 49.1632C88.5361 38.8063 87.4925 30.5663 82.894 27.9282C81.8341 27.3094 80.5948 27.0163 79.2413 27.0163V30.6477C79.9914 30.6477 80.5948 30.7943 81.1003 31.0711C83.318 32.3413 84.2801 37.1778 83.53 43.3985C83.3506 44.9293 83.0571 46.5414 82.6983 48.1862C79.5022 47.4045 76.0126 46.802 72.3437 46.4111C70.1423 43.3985 67.8594 40.6627 65.5601 38.2689C70.8761 33.3347 75.8659 30.6314 79.2576 30.6314V27C74.7733 27 68.903 30.1918 62.9674 35.7285C57.0318 30.2243 51.1614 27.0651 46.6771 27.0651V30.6966C50.0526 30.6966 55.0587 33.3835 60.3746 38.2852C58.0917 40.679 55.8088 43.3985 53.64 46.4111C49.9548 46.802 46.4651 47.4045 43.2691 48.2024C42.894 46.574 42.6168 44.9944 42.4211 43.4799C41.6547 37.2592 42.6005 32.4227 44.8019 31.1363C45.2911 30.8431 45.927 30.7129 46.6771 30.7129V27.0814C45.3074 27.0814 44.0681 27.3745 42.9918 27.9934C38.4097 30.6314 37.3824 38.8551 39.7468 49.1795C29.6042 52.3061 23 57.3055 23 62.5817C23 67.8741 29.6368 72.8898 39.8121 76.0001C37.4639 86.3571 38.5075 94.597 43.106 97.2351C44.1659 97.8539 45.4052 98.1471 46.775 98.1471C51.2593 98.1471 57.1296 94.9553 63.0652 89.4186C69.0008 94.9227 74.8712 98.0819 79.3555 98.0819C80.7252 98.0819 81.9645 97.7888 83.0408 97.17C87.6229 94.5319 88.6502 86.3082 86.2858 75.9838C96.3958 72.8735 103 67.8579 103 62.5817V62.5817ZM81.7689 51.7199C81.1655 53.8206 80.4154 55.9864 79.5675 58.1523C78.8989 56.8495 78.1977 55.5468 77.4313 54.244C76.6812 52.9412 75.8822 51.671 75.0832 50.4334C77.3987 50.7754 79.6327 51.1988 81.7689 51.7199ZM74.3004 69.0629C73.0285 71.2613 71.724 73.3457 70.3706 75.2836C67.9409 75.4953 65.4786 75.6093 63 75.6093C60.5377 75.6093 58.0754 75.4953 55.662 75.2999C54.3086 73.362 52.9878 71.2939 51.7159 69.1118C50.4766 66.9785 49.3514 64.8127 48.3241 62.6305C49.3351 60.4484 50.4766 58.2663 51.6996 56.133C52.9715 53.9346 54.276 51.8502 55.6294 49.9123C58.0591 49.7006 60.5214 49.5866 63 49.5866C65.4623 49.5866 67.9246 49.7006 70.338 49.896C71.6914 51.8339 73.0122 53.902 74.2841 56.0842C75.5234 58.2174 76.6486 60.3833 77.6759 62.5654C76.6486 64.7475 75.5234 66.9296 74.3004 69.0629ZM79.5675 66.9459C80.448 69.128 81.1981 71.3102 81.8178 73.4272C79.6816 73.9483 77.4313 74.388 75.0995 74.7299C75.8985 73.476 76.6975 72.1895 77.4476 70.8705C78.1977 69.5677 78.8989 68.2487 79.5675 66.9459ZM63.0326 84.3215C61.5161 82.7582 59.9996 81.0158 58.4994 79.1105C59.967 79.1756 61.4672 79.2245 62.9837 79.2245C64.5165 79.2245 66.033 79.1919 67.5169 79.1105C66.0493 81.0158 64.5328 82.7582 63.0326 84.3215ZM50.9005 74.7299C48.585 74.388 46.351 73.9646 44.2148 73.4435C44.8182 71.3427 45.5683 69.1769 46.4162 67.0111C47.0848 68.3138 47.786 69.6166 48.5524 70.9194C49.3188 72.2221 50.1015 73.4923 50.9005 74.7299ZM62.9511 40.8418C64.4676 42.4052 65.9841 44.1476 67.4843 46.0529C66.0167 45.9877 64.5165 45.9389 63 45.9389C61.4672 45.9389 59.9507 45.9715 58.4668 46.0529C59.9344 44.1476 61.4509 42.4052 62.9511 40.8418ZM50.8842 50.4334C50.0852 51.6873 49.2862 52.9738 48.5361 54.2929C47.786 55.5956 47.0848 56.8984 46.4162 58.2011C45.5357 56.019 44.7856 53.8369 44.1659 51.7199C46.3021 51.2151 48.5524 50.7754 50.8842 50.4334V50.4334ZM36.1268 70.8216C30.3543 68.3627 26.6201 65.1383 26.6201 62.5817C26.6201 60.025 30.3543 56.7844 36.1268 54.3417C37.5292 53.7392 39.062 53.2018 40.6437 52.697C41.5732 55.8887 42.7962 59.2108 44.3127 62.6142C42.8125 66.0014 41.6058 69.3072 40.6926 72.4827C39.0783 71.9778 37.5455 71.4242 36.1268 70.8216ZM44.8997 94.0922C42.682 92.822 41.7199 87.9855 42.47 81.7648C42.6494 80.2341 42.9429 78.6219 43.3017 76.9772C46.4978 77.7588 49.9874 78.3614 53.6563 78.7522C55.8577 81.7648 58.1406 84.5006 60.4399 86.8945C55.1239 91.8287 50.1341 94.5319 46.7424 94.5319C46.0086 94.5156 45.3889 94.3691 44.8997 94.0922V94.0922ZM83.5789 81.6834C84.3453 87.9041 83.3995 92.7406 81.1981 94.0271C80.7089 94.3202 80.073 94.4505 79.3229 94.4505C75.9474 94.4505 70.9413 91.7635 65.6254 86.8619C67.9083 84.4681 70.1912 81.7486 72.36 78.7359C76.0453 78.3451 79.5349 77.7426 82.7309 76.9446C83.106 78.5894 83.3995 80.169 83.5789 81.6834V81.6834ZM89.8569 70.8216C88.4545 71.4242 86.9217 71.9616 85.34 72.4664C84.4105 69.2746 83.1875 65.9526 81.671 62.5491C83.1712 59.1619 84.3779 55.8562 85.2911 52.6807C86.9054 53.1855 88.4382 53.7392 89.8732 54.3417C95.6457 56.8007 99.3799 60.025 99.3799 62.5817C99.3636 65.1383 95.6294 68.379 89.8569 70.8216V70.8216Z" fill="#61DAFB"/>
<path d="M62.9837 70.024C67.0994 70.024 70.4358 66.692 70.4358 62.5819C70.4358 58.4718 67.0994 55.1399 62.9837 55.1399C58.8681 55.1399 55.5316 58.4718 55.5316 62.5819C55.5316 66.692 58.8681 70.024 62.9837 70.024Z" fill="#61DAFB"/>
</svg>
