<svg width="127" height="126" viewBox="0 0 127 126" fill="none" xmlns="http://www.w3.org/2000/svg">
<rect x="0.825195" width="125.825" height="125.825" rx="10" fill="#12121F"/>
<path d="M88.2939 97.9384L64.3937 104.255L40.493 97.9384L34.9778 39.2932H93.8099L88.2939 97.9384Z" fill="#2062AF"/>
<path d="M64.3936 44.0439V99.2175L64.4476 99.232L83.7891 94.1201L88.2535 44.0439H64.3936Z" fill="#3C9CD7"/>
<path d="M50.8292 30.6774V27.1869H56.0179V23.3674H46.9377V34.1628H56.0179V30.6774H50.8292ZM65.3519 27.1869H68.9795V23.3674H59.8984V27.1869C61.1133 28.3793 61.7469 28.9501 63.504 30.6747C62.4769 30.6747 59.8984 30.6783 59.8984 30.6781V34.1628H68.9795V30.6774L65.3519 27.1869ZM78.2227 27.1869H81.8501V23.3674H72.7686V27.1869C73.9836 28.3793 74.6175 28.9501 76.3747 30.6747C75.3478 30.6747 72.7686 30.6783 72.7686 30.6781V34.1628H81.8503V30.6774L78.2227 27.1869Z" fill="white"/>
<path d="M64.3723 58.7076L47.2661 65.7001L47.8334 72.6232L64.3723 65.6825L81.9655 58.2998L82.6949 51.2178L64.3723 58.7076Z" fill="white"/>
<path d="M47.2659 65.7L47.8332 72.6231L64.3721 65.6825V58.7075L47.2659 65.7Z" fill="url(#paint0_linear)"/>
<path d="M82.6949 51.2178L64.3723 58.7075V65.6824L81.9654 58.2997L82.6949 51.2178Z" fill="url(#paint1_linear)"/>
<path d="M47.2922 65.6992L47.8597 72.6223L73.2365 72.7017L72.6689 81.9323L64.3184 84.2397L56.2912 82.2504L55.8048 76.521H48.3461L49.319 87.5819L64.3995 91.9583L79.3982 87.6612L81.3441 65.6992H47.2922Z" fill="url(#paint2_linear)"/>
<path opacity="0.05" d="M64.3724 65.6992H47.2661L47.8334 72.6223L64.3724 72.6742V65.6992ZM64.3724 84.2178L64.2913 84.24L56.2651 82.2507L55.7787 76.5213H48.3201L49.2929 87.5822L64.3724 91.9586V84.2178Z" fill="black"/>
<path d="M45.7256 51.2178H82.6949L81.9655 58.2998H46.6173L45.7256 51.2178Z" fill="url(#paint3_linear)"/>
<path opacity="0.05" d="M64.3724 51.2178H45.7256L46.6173 58.2998H64.3724V51.2178Z" fill="black"/>
<defs>
<linearGradient id="paint0_linear" x1="55.819" y1="72.6233" x2="55.819" y2="58.7077" gradientUnits="userSpaceOnUse">
<stop offset="0.387" stop-color="#D1D3D4" stop-opacity="0"/>
<stop offset="1" stop-color="#D1D3D4"/>
</linearGradient>
<linearGradient id="paint1_linear" x1="73.5334" y1="65.6826" x2="73.5334" y2="51.2179" gradientUnits="userSpaceOnUse">
<stop offset="0.387" stop-color="#D1D3D4" stop-opacity="0"/>
<stop offset="1" stop-color="#D1D3D4"/>
</linearGradient>
<linearGradient id="paint2_linear" x1="47.2922" y1="78.8289" x2="81.3439" y2="78.8289" gradientUnits="userSpaceOnUse">
<stop stop-color="#E8E7E5"/>
<stop offset="1" stop-color="white"/>
</linearGradient>
<linearGradient id="paint3_linear" x1="45.7256" y1="54.7588" x2="82.6947" y2="54.7588" gradientUnits="userSpaceOnUse">
<stop stop-color="#E8E7E5"/>
<stop offset="1" stop-color="white"/>
</linearGradient>
</defs>
</svg>
