<svg width="127" height="126" viewBox="0 0 127 126" fill="none" xmlns="http://www.w3.org/2000/svg">
<rect x="0.475586" width="125.825" height="125.825" rx="10" fill="#12121F"/>
<path d="M54.9722 28L48.9722 34L28.4722 54.5L65.9722 92L96.4722 61.5L58.9722 24L54.9722 28Z" fill="white"/>
<path d="M104.969 57.4323L68.867 21.3325C68.3726 20.8379 67.7856 20.4456 67.1395 20.1779C66.4935 19.9102 65.801 19.7725 65.1017 19.7725C64.4024 19.7725 63.7099 19.9102 63.0638 20.1779C62.4178 20.4456 61.8308 20.8379 61.3364 21.3325L53.8399 28.8298L63.3496 38.3389C64.4674 37.9587 65.6694 37.8992 66.8193 38.1671C67.9691 38.435 69.021 39.0196 69.8557 39.8546C70.6949 40.695 71.2809 41.7544 71.5466 42.9119C71.8123 44.0694 71.747 45.2783 71.3583 46.4005L80.5218 55.5657C82.7392 54.802 85.298 55.2964 87.0683 57.0698C87.6569 57.658 88.1238 58.3565 88.4424 59.1252C88.7609 59.8939 88.9249 60.7179 88.9249 61.55C88.9249 62.3821 88.7609 63.2061 88.4424 63.9748C88.1238 64.7435 87.6569 65.442 87.0683 66.0302C86.0328 67.0667 84.6701 67.7123 83.2122 67.8571C81.7542 68.0019 80.2911 67.637 79.0719 66.8244C77.8528 66.0119 76.9529 64.8019 76.5254 63.4005C76.0979 61.9991 76.1693 60.4929 76.7274 59.1382L68.1809 50.5915L68.1801 73.0836C68.7997 73.3899 69.3656 73.7946 69.8557 74.2819C70.4443 74.8703 70.9111 75.5689 71.2296 76.3377C71.5482 77.1066 71.7121 77.9306 71.7121 78.7628C71.7121 79.5951 71.5482 80.4191 71.2296 81.188C70.9111 81.9568 70.4443 82.6554 69.8557 83.2438C67.3799 85.7196 63.3675 85.7196 60.8955 83.2438C60.1571 82.5058 59.6124 81.5968 59.3099 80.5976C59.0074 79.5984 58.9565 78.5399 59.1617 77.5162C59.3669 76.4926 59.8219 75.5355 60.4862 74.7301C61.1504 73.9247 62.0034 73.2959 62.9693 72.8996V50.198C62.1923 49.8807 61.4871 49.4104 60.8955 48.815C59.0205 46.9422 58.5695 44.1908 59.5304 41.8881L50.1565 32.5125L25.4032 57.2646C24.9086 57.7592 24.5162 58.3465 24.2485 58.9927C23.9808 59.639 23.843 60.3316 23.843 61.0312C23.843 61.7307 23.9808 62.4233 24.2485 63.0696C24.5162 63.7159 24.9086 64.3031 25.4032 64.7977L61.5048 100.898C62.5035 101.897 63.8579 102.458 65.2701 102.458C66.6823 102.458 68.0367 101.897 69.0354 100.898L104.969 64.9661C105.967 63.9668 106.528 62.6119 106.528 61.1992C106.528 59.7864 105.967 58.4315 104.969 57.4323Z" fill="#DE4C36"/>
</svg>
