<svg width="126" height="126" viewBox="0 0 126 126" fill="none" xmlns="http://www.w3.org/2000/svg">
<rect x="0.126221" width="125.825" height="125.825" rx="10" fill="#12121F"/>
<path d="M26.7195 28.3914H97.6789V97.4339H26.7195V28.3914Z" fill="url(#paint0_radial)"/>
<path d="M26.7193 28.3913H97.6786V97.4338H26.7193V28.3913ZM23.4939 100.66H100.904V25.165H23.4939V100.66ZM74.1975 52.0723C74.1975 51.8142 74.2942 51.685 74.5846 51.685H79.6485C79.9064 51.685 80.0355 51.7818 80.0355 52.0723V77.5277C80.0355 77.7857 79.971 77.9148 79.6485 77.9148H74.6491C74.3266 77.9148 74.2297 77.7535 74.2297 77.4955V52.0723H74.1975ZM73.8427 44.7485C73.8427 42.6837 75.2941 41.4578 77.1327 41.4578C79.1002 41.4578 80.4226 42.7805 80.4226 44.7485C80.4226 46.8779 79.0357 48.0393 77.0682 48.0393C75.1974 48.0394 73.8427 46.8779 73.8427 44.7485ZM59.3283 62.6867C58.4253 59.1055 56.2966 51.2979 55.4901 47.5232H55.4256C54.7482 51.2979 53.0388 57.6859 51.6842 62.6867H59.3283ZM50.3617 67.9134L47.8136 77.5922C47.7491 77.8502 47.6523 77.9147 47.3298 77.9147H42.5884C42.2659 77.9147 42.2013 77.8179 42.2659 77.4308L51.4261 45.3615C51.5873 44.7808 51.6841 44.2645 51.7486 42.6837C51.7486 42.4579 51.8453 42.3612 52.0066 42.3612H58.78C59.0057 42.3612 59.1025 42.4257 59.1671 42.6837L69.4239 77.4953C69.4883 77.7533 69.4238 77.9147 69.1658 77.9147H63.8116C63.5536 77.9147 63.3922 77.8502 63.3278 77.6245L60.683 67.9134H50.3617Z" fill="#FF7F18"/>
<defs>
<radialGradient id="paint0_radial" cx="0" cy="0" r="1" gradientUnits="userSpaceOnUse" gradientTransform="translate(50.09 43.8638) scale(53.9291 52.2271)">
<stop stop-color="#423325" stop-opacity="0.98"/>
<stop offset="1" stop-color="#1C0A00"/>
</radialGradient>
</defs>
</svg>
