<svg width="127" height="126" viewBox="0 0 127 126" fill="none" xmlns="http://www.w3.org/2000/svg">
<rect x="0.951416" width="125.825" height="125.825" rx="10" fill="#12121F"/>
<path d="M27.5444 28.3914H98.5038V97.4339H27.5444V28.3914Z" fill="url(#paint0_radial)"/>
<path d="M27.5442 28.3913H98.5036V97.4338H27.5442V28.3913ZM24.3188 100.66H101.729V25.165H24.3188V100.66ZM76.5062 56.1374C73.958 56.1374 73.0873 57.4278 73.0873 58.4925C73.0873 59.6539 73.6678 60.4605 77.0868 62.235C82.1507 64.687 83.7312 67.0422 83.7312 70.4943C83.7312 75.6563 79.7962 78.431 74.4742 78.431C71.668 78.431 69.2489 77.8502 67.862 77.0437C67.6363 76.9469 67.604 76.7856 67.604 76.5275V71.7848C67.604 71.4622 67.7653 71.3653 67.9912 71.5267C70.0232 72.8496 72.3454 73.4302 74.4742 73.4302C77.0223 73.4302 78.0867 72.3656 78.0867 70.9137C78.0867 69.7523 77.3448 68.7199 74.0871 67.0422C69.5069 64.8483 67.604 62.6222 67.604 58.912C67.604 54.75 70.8618 51.2979 76.5062 51.2979C79.2801 51.2979 81.2153 51.7174 82.2797 52.2013C82.5377 52.3626 82.6022 52.6207 82.6022 52.8465V57.2664C82.6022 57.5245 82.4409 57.6859 82.1183 57.589C80.6992 56.6859 78.6027 56.1374 76.5062 56.1374ZM48.7675 59.9766C49.5094 60.0411 50.09 60.0411 51.3801 60.0411C55.154 60.0411 58.7019 58.7184 58.7019 53.5887C58.7019 49.4913 56.1538 47.4264 51.864 47.4264C50.5739 47.4264 49.3481 47.4909 48.7675 47.5232V59.9766ZM43.0264 42.845C43.0264 42.6192 43.478 42.4578 43.7359 42.4578C45.8003 42.361 48.8644 42.2965 52.0575 42.2965C60.9919 42.2965 64.4753 47.2004 64.4753 53.4595C64.4753 61.6542 58.5405 65.1709 51.2511 65.1709C50.0255 65.1709 49.6063 65.1064 48.7353 65.1064V77.4953C48.7353 77.7534 48.6385 77.8824 48.3483 77.8824H43.4134C43.1554 77.8824 43.0263 77.7857 43.0263 77.4953V42.845H43.0264Z" fill="#31C5F0"/>
<defs>
<radialGradient id="paint0_radial" cx="0" cy="0" r="1" gradientUnits="userSpaceOnUse" gradientTransform="translate(50.915 43.8639) scale(53.9291 52.2271)">
<stop stop-color="#34364E" stop-opacity="0.98"/>
<stop offset="1" stop-color="#0C0824"/>
</radialGradient>
</defs>
</svg>
